G04 Layer_Color=65535*
%FSLAX25Y25*%
%MOIN*%
G70*
G01*
G75*
%ADD19C,0.00500*%
%ADD20C,0.00787*%
%ADD21C,0.00984*%
%ADD22C,0.02362*%
%ADD23C,0.01000*%
D19*
X308653Y639791D02*
G03*
X308653Y651209I0J5709D01*
G01*
X309653Y600791D02*
G03*
X309653Y612209I0J5709D01*
G01*
X307154Y569791D02*
G03*
X307154Y581209I0J5709D01*
G01*
X279126Y636839D02*
Y654161D01*
X304323D01*
Y636839D02*
Y654161D01*
X279126Y636839D02*
X304323D01*
Y651209D02*
X308654D01*
X304323Y639791D02*
X308654D01*
X280126Y597839D02*
Y615161D01*
X305323D01*
Y597839D02*
Y615161D01*
X280126Y597839D02*
X305323D01*
Y612209D02*
X309654D01*
X305323Y600791D02*
X309654D01*
X277626Y566839D02*
Y584161D01*
X302823D01*
Y566839D02*
Y584161D01*
X277626Y566839D02*
X302823D01*
Y581209D02*
X307154D01*
X302823Y569791D02*
X307154D01*
D20*
X587331Y521500D02*
G03*
X587331Y516500I0J-2500D01*
G01*
X593000Y597500D02*
X623000D01*
Y607500D01*
X593000D02*
X623000D01*
X593000Y597500D02*
Y607500D01*
X529000Y436000D02*
X689000D01*
X529000D02*
Y446000D01*
X536500D01*
X689000D01*
Y436000D02*
Y446000D01*
X305500Y626000D02*
Y629000D01*
X285500D02*
X305500D01*
X285500Y623000D02*
Y629000D01*
Y623000D02*
X305500D01*
Y626000D01*
X284600D02*
X285500D01*
X305500D02*
X306400D01*
X539000Y463000D02*
Y466000D01*
X519000D02*
X539000D01*
X519000Y460000D02*
Y466000D01*
Y460000D02*
X539000D01*
Y463000D01*
X518100D02*
X519000D01*
X539000D02*
X539900D01*
X305500Y593000D02*
Y596000D01*
X285500D02*
X305500D01*
X285500Y590000D02*
Y596000D01*
Y590000D02*
X305500D01*
Y593000D01*
X284600D02*
X285500D01*
X305500D02*
X306400D01*
X709000Y494000D02*
X712000D01*
X709000Y474000D02*
Y494000D01*
Y474000D02*
X715000D01*
Y494000D01*
X712000D02*
X715000D01*
X712000Y473100D02*
Y474000D01*
Y494000D02*
Y494900D01*
X276500Y350000D02*
X346500D01*
X276500Y340000D02*
Y350000D01*
Y340000D02*
X346500D01*
Y350000D01*
X305500Y559000D02*
Y562000D01*
X285500D02*
X305500D01*
X285500Y556000D02*
Y562000D01*
Y556000D02*
X305500D01*
Y559000D01*
X284600D02*
X285500D01*
X305500D02*
X306400D01*
X378669Y544394D02*
X587331D01*
X378669Y493606D02*
X587331D01*
Y521500D02*
Y544394D01*
Y493606D02*
Y516500D01*
X378669Y493606D02*
Y544394D01*
X743500Y680500D02*
Y690500D01*
X663500Y680500D02*
X743500D01*
X663500D02*
Y690500D01*
X743500D01*
X321000Y640000D02*
X471000D01*
X328500Y650000D02*
X471000D01*
X321000D02*
X328500D01*
X321000Y640000D02*
Y650000D01*
X471000Y640000D02*
Y650000D01*
X320000Y736000D02*
X470000D01*
X320000Y726000D02*
X462500D01*
X470000D01*
Y736000D01*
X320000Y726000D02*
Y736000D01*
X413000Y571000D02*
Y581000D01*
X433000D01*
Y571000D02*
Y581000D01*
X413000Y571000D02*
X433000D01*
X506500Y631500D02*
Y634500D01*
Y631500D02*
X526500D01*
Y637500D01*
X506500D02*
X526500D01*
X506500Y634500D02*
Y637500D01*
X526500Y634500D02*
X527400D01*
X505600D02*
X506500D01*
X566500Y642650D02*
Y676350D01*
X556500Y642650D02*
X566500D01*
X556500D02*
Y676350D01*
X566500D01*
X239500Y563500D02*
Y573500D01*
X219500Y563500D02*
X239500D01*
X219500D02*
Y573500D01*
X239500D01*
D21*
X583610Y549000D02*
G03*
X583610Y549000I-492J0D01*
G01*
X561988Y678244D02*
G03*
X561988Y678244I-492J0D01*
G01*
D22*
X584575Y540457D02*
G03*
X584575Y540457I-1181J0D01*
G01*
D23*
X280900Y624398D02*
Y618400D01*
X283899D01*
X284899Y619400D01*
Y623398D01*
X283899Y624398D01*
X280900D01*
X290897Y618400D02*
X286898D01*
X290897Y622399D01*
Y623398D01*
X289897Y624398D01*
X287898D01*
X286898Y623398D01*
X279900Y663398D02*
Y657400D01*
X282899D01*
X283899Y658400D01*
Y662398D01*
X282899Y663398D01*
X279900D01*
X285898Y657400D02*
X287897D01*
X286898D01*
Y663398D01*
X285898Y662398D01*
X278400Y593398D02*
Y587400D01*
X281399D01*
X282399Y588400D01*
Y592398D01*
X281399Y593398D01*
X278400D01*
X284398Y592398D02*
X285398Y593398D01*
X287397D01*
X288397Y592398D01*
Y591399D01*
X287397Y590399D01*
X286397D01*
X287397D01*
X288397Y589399D01*
Y588400D01*
X287397Y587400D01*
X285398D01*
X284398Y588400D01*
X593600Y616898D02*
Y612899D01*
X595599Y610900D01*
X597599Y612899D01*
Y616898D01*
X599598Y610900D02*
Y616898D01*
X602597D01*
X603597Y615898D01*
Y613899D01*
X602597Y612899D01*
X599598D01*
X601597D02*
X603597Y610900D01*
X321600Y659398D02*
Y653400D01*
X323599Y655399D01*
X325599Y653400D01*
Y659398D01*
X327598D02*
X329597D01*
X328598D01*
Y653400D01*
X327598D01*
X329597D01*
X379300Y561398D02*
Y556400D01*
X380300Y555400D01*
X382299D01*
X383299Y556400D01*
Y561398D01*
X385298Y555400D02*
X387297D01*
X386298D01*
Y561398D01*
X385298Y560398D01*
X561099Y687198D02*
X560099Y688198D01*
X558100D01*
X557100Y687198D01*
Y686199D01*
X558100Y685199D01*
X560099D01*
X561099Y684199D01*
Y683200D01*
X560099Y682200D01*
X558100D01*
X557100Y683200D01*
X563098Y682200D02*
X565097D01*
X564098D01*
Y688198D01*
X563098Y687198D01*
X664100Y693900D02*
Y699898D01*
X667099D01*
X668099Y698898D01*
Y696899D01*
X667099Y695899D01*
X664100D01*
X666099D02*
X668099Y693900D01*
X674097Y699898D02*
X670098D01*
Y696899D01*
X672097D01*
X670098D01*
Y693900D01*
X676096Y699898D02*
X678095D01*
X677096D01*
Y693900D01*
X676096D01*
X678095D01*
X681095Y699898D02*
Y693900D01*
X684094D01*
X685093Y694900D01*
Y698898D01*
X684094Y699898D01*
X681095D01*
X278300Y565400D02*
Y571398D01*
X281299D01*
X282299Y570398D01*
Y568399D01*
X281299Y567399D01*
X278300D01*
X280299D02*
X282299Y565400D01*
X288297Y571398D02*
X286297Y570398D01*
X284298Y568399D01*
Y566400D01*
X285298Y565400D01*
X287297D01*
X288297Y566400D01*
Y567399D01*
X287297Y568399D01*
X284298D01*
X278300Y599400D02*
Y605398D01*
X281299D01*
X282299Y604398D01*
Y602399D01*
X281299Y601399D01*
X278300D01*
X280299D02*
X282299Y599400D01*
X288297Y605398D02*
X284298D01*
Y602399D01*
X286297Y603399D01*
X287297D01*
X288297Y602399D01*
Y600400D01*
X287297Y599400D01*
X285298D01*
X284298Y600400D01*
X278300Y632400D02*
Y638398D01*
X281299D01*
X282299Y637398D01*
Y635399D01*
X281299Y634399D01*
X278300D01*
X280299D02*
X282299Y632400D01*
X287297D02*
Y638398D01*
X284298Y635399D01*
X288297D01*
X511800Y469400D02*
Y475398D01*
X514799D01*
X515799Y474398D01*
Y472399D01*
X514799Y471399D01*
X511800D01*
X513799D02*
X515799Y469400D01*
X517798Y474398D02*
X518798Y475398D01*
X520797D01*
X521797Y474398D01*
Y473399D01*
X520797Y472399D01*
X519797D01*
X520797D01*
X521797Y471399D01*
Y470400D01*
X520797Y469400D01*
X518798D01*
X517798Y470400D01*
X499300Y640900D02*
Y646898D01*
X502299D01*
X503299Y645898D01*
Y643899D01*
X502299Y642899D01*
X499300D01*
X501299D02*
X503299Y640900D01*
X509297D02*
X505298D01*
X509297Y644899D01*
Y645898D01*
X508297Y646898D01*
X506298D01*
X505298Y645898D01*
X709600Y505200D02*
Y511198D01*
X712599D01*
X713599Y510198D01*
Y508199D01*
X712599Y507199D01*
X709600D01*
X711599D02*
X713599Y505200D01*
X715598D02*
X717597D01*
X716598D01*
Y511198D01*
X715598Y510198D01*
X413600Y584400D02*
Y590398D01*
X416599D01*
X417599Y589398D01*
Y587399D01*
X416599Y586399D01*
X413600D01*
X419598Y590398D02*
X421597D01*
X420598D01*
Y584400D01*
X419598D01*
X421597D01*
X424596D02*
Y590398D01*
X428595Y584400D01*
Y590398D01*
X436593D02*
Y584400D01*
Y587399D01*
X440591D01*
Y590398D01*
Y584400D01*
X446589Y590398D02*
X442591D01*
Y584400D01*
X446589D01*
X442591Y587399D02*
X444590D01*
X448589Y584400D02*
Y588399D01*
X450588Y590398D01*
X452587Y588399D01*
Y584400D01*
Y587399D01*
X448589D01*
X454587Y590398D02*
Y584400D01*
X457586D01*
X458586Y585400D01*
Y589398D01*
X457586Y590398D01*
X454587D01*
X464583D02*
X460585D01*
Y584400D01*
X464583D01*
X460585Y587399D02*
X462584D01*
X466583Y584400D02*
Y590398D01*
X469582D01*
X470582Y589398D01*
Y587399D01*
X469582Y586399D01*
X466583D01*
X468582D02*
X470582Y584400D01*
X220100Y576900D02*
Y582898D01*
X223099D01*
X224099Y581898D01*
Y579899D01*
X223099Y578899D01*
X220100D01*
X229097Y576900D02*
Y582898D01*
X226098Y579899D01*
X230097D01*
X529600Y455398D02*
Y449400D01*
X533599D01*
X539597Y454398D02*
X538597Y455398D01*
X536598D01*
X535598Y454398D01*
Y450400D01*
X536598Y449400D01*
X538597D01*
X539597Y450400D01*
X541596Y455398D02*
Y449400D01*
X544595D01*
X545595Y450400D01*
Y454398D01*
X544595Y455398D01*
X541596D01*
X277100Y361398D02*
Y355400D01*
Y357399D01*
X281099Y361398D01*
X278100Y358399D01*
X281099Y355400D01*
X286097D02*
X284098D01*
X283098Y356400D01*
Y358399D01*
X284098Y359399D01*
X286097D01*
X287097Y358399D01*
Y357399D01*
X283098D01*
X289096Y359399D02*
Y356400D01*
X290096Y355400D01*
X293095D01*
Y354400D01*
X292095Y353401D01*
X291095D01*
X293095Y355400D02*
Y359399D01*
X295094Y353401D02*
Y359399D01*
X298093D01*
X299093Y358399D01*
Y356400D01*
X298093Y355400D01*
X295094D01*
X302092Y359399D02*
X304091D01*
X305091Y358399D01*
Y355400D01*
X302092D01*
X301092Y356400D01*
X302092Y357399D01*
X305091D01*
X311089Y361398D02*
Y355400D01*
X308090D01*
X307090Y356400D01*
Y358399D01*
X308090Y359399D01*
X311089D01*
X324599Y745398D02*
X320600D01*
Y742399D01*
X322599D01*
X320600D01*
Y739400D01*
X326598Y745398D02*
X328597D01*
X327598D01*
Y739400D01*
X326598D01*
X328597D01*
M02*
