G04 Layer_Color=128*
%FSLAX25Y25*%
%MOIN*%
G70*
G01*
G75*
%ADD27C,0.00200*%
D27*
X285425Y650500D02*
X288575D01*
X287000Y648925D02*
Y652075D01*
X285425Y640500D02*
X288575D01*
X287000Y638925D02*
Y642075D01*
X286425Y611500D02*
X289575D01*
X288000Y609925D02*
Y613075D01*
X286425Y601500D02*
X289575D01*
X288000Y599925D02*
Y603075D01*
X283925Y580500D02*
X287075D01*
X285500Y578925D02*
Y582075D01*
X283925Y570500D02*
X287075D01*
X285500Y568925D02*
Y572075D01*
X596228Y602500D02*
X599772D01*
X598000Y600728D02*
Y604272D01*
X606228Y602500D02*
X609772D01*
X608000Y600728D02*
Y604272D01*
X616228Y602500D02*
X619772D01*
X618000Y600728D02*
Y604272D01*
X532228Y441000D02*
X535772D01*
X534000Y439228D02*
Y442772D01*
X542228Y441000D02*
X545772D01*
X544000Y439228D02*
Y442772D01*
X552228Y441000D02*
X555772D01*
X554000Y439228D02*
Y442772D01*
X562228Y441000D02*
X565772D01*
X564000Y439228D02*
Y442772D01*
X572228Y441000D02*
X575772D01*
X574000Y439228D02*
Y442772D01*
X582228Y441000D02*
X585772D01*
X584000Y439228D02*
Y442772D01*
X592228Y441000D02*
X595772D01*
X594000Y439228D02*
Y442772D01*
X602228Y441000D02*
X605772D01*
X604000Y439228D02*
Y442772D01*
X612228Y441000D02*
X615772D01*
X614000Y439228D02*
Y442772D01*
X622228Y441000D02*
X625772D01*
X624000Y439228D02*
Y442772D01*
X632228Y441000D02*
X635772D01*
X634000Y439228D02*
Y442772D01*
X642228Y441000D02*
X645772D01*
X644000Y439228D02*
Y442772D01*
X652228Y441000D02*
X655772D01*
X654000Y439228D02*
Y442772D01*
X662228Y441000D02*
X665772D01*
X664000Y439228D02*
Y442772D01*
X672228Y441000D02*
X675772D01*
X674000Y439228D02*
Y442772D01*
X682228Y441000D02*
X685772D01*
X684000Y439228D02*
Y442772D01*
X308827Y626000D02*
X312173D01*
X310500Y624327D02*
Y627673D01*
X278827Y626000D02*
X282173D01*
X280500Y624327D02*
Y627673D01*
X542327Y463000D02*
X545673D01*
X544000Y461327D02*
Y464673D01*
X512327Y463000D02*
X515673D01*
X514000Y461327D02*
Y464673D01*
X308827Y593000D02*
X312173D01*
X310500Y591327D02*
Y594673D01*
X278827Y593000D02*
X282173D01*
X280500Y591327D02*
Y594673D01*
X710327Y499000D02*
X713673D01*
X712000Y497327D02*
Y500673D01*
X710327Y469000D02*
X713673D01*
X712000Y467327D02*
Y470673D01*
X339728Y345000D02*
X343272D01*
X341500Y343228D02*
Y346772D01*
X329728Y345000D02*
X333272D01*
X331500Y343228D02*
Y346772D01*
X319728Y345000D02*
X323272D01*
X321500Y343228D02*
Y346772D01*
X309728Y345000D02*
X313272D01*
X311500Y343228D02*
Y346772D01*
X289728Y345000D02*
X293272D01*
X291500Y343228D02*
Y346772D01*
X279728Y345000D02*
X283272D01*
X281500Y343228D02*
Y346772D01*
X299728Y345000D02*
X303272D01*
X301500Y343228D02*
Y346772D01*
X308827Y559000D02*
X312173D01*
X310500Y557327D02*
Y560673D01*
X278827Y559000D02*
X282173D01*
X280500Y557327D02*
Y560673D01*
X576228Y549000D02*
X579772D01*
X578000Y547228D02*
Y550772D01*
X566228Y549000D02*
X569772D01*
X568000Y547228D02*
Y550772D01*
X556228Y549000D02*
X559772D01*
X558000Y547228D02*
Y550772D01*
X546228Y549000D02*
X549772D01*
X548000Y547228D02*
Y550772D01*
X536228Y549000D02*
X539772D01*
X538000Y547228D02*
Y550772D01*
X526228Y549000D02*
X529772D01*
X528000Y547228D02*
Y550772D01*
X516228Y549000D02*
X519772D01*
X518000Y547228D02*
Y550772D01*
X506228Y549000D02*
X509772D01*
X508000Y547228D02*
Y550772D01*
X496228Y549000D02*
X499772D01*
X498000Y547228D02*
Y550772D01*
X486228Y549000D02*
X489772D01*
X488000Y547228D02*
Y550772D01*
X476228Y549000D02*
X479772D01*
X478000Y547228D02*
Y550772D01*
X466228Y549000D02*
X469772D01*
X468000Y547228D02*
Y550772D01*
X456228Y549000D02*
X459772D01*
X458000Y547228D02*
Y550772D01*
X446228Y549000D02*
X449772D01*
X448000Y547228D02*
Y550772D01*
X436228Y549000D02*
X439772D01*
X438000Y547228D02*
Y550772D01*
X426228Y549000D02*
X429772D01*
X428000Y547228D02*
Y550772D01*
X416228Y549000D02*
X419772D01*
X418000Y547228D02*
Y550772D01*
X406228Y549000D02*
X409772D01*
X408000Y547228D02*
Y550772D01*
X396228Y549000D02*
X399772D01*
X398000Y547228D02*
Y550772D01*
X386228Y549000D02*
X389772D01*
X388000Y547228D02*
Y550772D01*
X576228Y489000D02*
X579772D01*
X578000Y487228D02*
Y490772D01*
X566228Y489000D02*
X569772D01*
X568000Y487228D02*
Y490772D01*
X556228Y489000D02*
X559772D01*
X558000Y487228D02*
Y490772D01*
X546228Y489000D02*
X549772D01*
X548000Y487228D02*
Y490772D01*
X536228Y489000D02*
X539772D01*
X538000Y487228D02*
Y490772D01*
X526228Y489000D02*
X529772D01*
X528000Y487228D02*
Y490772D01*
X516228Y489000D02*
X519772D01*
X518000Y487228D02*
Y490772D01*
X506228Y489000D02*
X509772D01*
X508000Y487228D02*
Y490772D01*
X496228Y489000D02*
X499772D01*
X498000Y487228D02*
Y490772D01*
X486228Y489000D02*
X489772D01*
X488000Y487228D02*
Y490772D01*
X476228Y489000D02*
X479772D01*
X478000Y487228D02*
Y490772D01*
X466228Y489000D02*
X469772D01*
X468000Y487228D02*
Y490772D01*
X456228Y489000D02*
X459772D01*
X458000Y487228D02*
Y490772D01*
X446228Y489000D02*
X449772D01*
X448000Y487228D02*
Y490772D01*
X436228Y489000D02*
X439772D01*
X438000Y487228D02*
Y490772D01*
X426228Y489000D02*
X429772D01*
X428000Y487228D02*
Y490772D01*
X416228Y489000D02*
X419772D01*
X418000Y487228D02*
Y490772D01*
X406228Y489000D02*
X409772D01*
X408000Y487228D02*
Y490772D01*
X396228Y489000D02*
X399772D01*
X398000Y487228D02*
Y490772D01*
X386228Y489000D02*
X389772D01*
X388000Y487228D02*
Y490772D01*
X666728Y685500D02*
X670272D01*
X668500Y683728D02*
Y687272D01*
X676728Y685500D02*
X680272D01*
X678500Y683728D02*
Y687272D01*
X686728Y685500D02*
X690272D01*
X688500Y683728D02*
Y687272D01*
X696728Y685500D02*
X700272D01*
X698500Y683728D02*
Y687272D01*
X706728Y685500D02*
X710272D01*
X708500Y683728D02*
Y687272D01*
X716728Y685500D02*
X720272D01*
X718500Y683728D02*
Y687272D01*
X726728Y685500D02*
X730272D01*
X728500Y683728D02*
Y687272D01*
X736728Y685500D02*
X740272D01*
X738500Y683728D02*
Y687272D01*
X464228Y645000D02*
X467772D01*
X466000Y643228D02*
Y646772D01*
X454228Y645000D02*
X457772D01*
X456000Y643228D02*
Y646772D01*
X444228Y645000D02*
X447772D01*
X446000Y643228D02*
Y646772D01*
X434228Y645000D02*
X437772D01*
X436000Y643228D02*
Y646772D01*
X424228Y645000D02*
X427772D01*
X426000Y643228D02*
Y646772D01*
X414228Y645000D02*
X417772D01*
X416000Y643228D02*
Y646772D01*
X404228Y645000D02*
X407772D01*
X406000Y643228D02*
Y646772D01*
X394228Y645000D02*
X397772D01*
X396000Y643228D02*
Y646772D01*
X384228Y645000D02*
X387772D01*
X386000Y643228D02*
Y646772D01*
X374228Y645000D02*
X377772D01*
X376000Y643228D02*
Y646772D01*
X364228Y645000D02*
X367772D01*
X366000Y643228D02*
Y646772D01*
X354228Y645000D02*
X357772D01*
X356000Y643228D02*
Y646772D01*
X344228Y645000D02*
X347772D01*
X346000Y643228D02*
Y646772D01*
X334228Y645000D02*
X337772D01*
X336000Y643228D02*
Y646772D01*
X324228Y645000D02*
X327772D01*
X326000Y643228D02*
Y646772D01*
X323228Y731000D02*
X326772D01*
X325000Y729228D02*
Y732772D01*
X333228Y731000D02*
X336772D01*
X335000Y729228D02*
Y732772D01*
X343228Y731000D02*
X346772D01*
X345000Y729228D02*
Y732772D01*
X353228Y731000D02*
X356772D01*
X355000Y729228D02*
Y732772D01*
X363228Y731000D02*
X366772D01*
X365000Y729228D02*
Y732772D01*
X373228Y731000D02*
X376772D01*
X375000Y729228D02*
Y732772D01*
X383228Y731000D02*
X386772D01*
X385000Y729228D02*
Y732772D01*
X393228Y731000D02*
X396772D01*
X395000Y729228D02*
Y732772D01*
X403228Y731000D02*
X406772D01*
X405000Y729228D02*
Y732772D01*
X413228Y731000D02*
X416772D01*
X415000Y729228D02*
Y732772D01*
X423228Y731000D02*
X426772D01*
X425000Y729228D02*
Y732772D01*
X433228Y731000D02*
X436772D01*
X435000Y729228D02*
Y732772D01*
X443228Y731000D02*
X446772D01*
X445000Y729228D02*
Y732772D01*
X453228Y731000D02*
X456772D01*
X455000Y729228D02*
Y732772D01*
X463228Y731000D02*
X466772D01*
X465000Y729228D02*
Y732772D01*
X426228Y576000D02*
X429772D01*
X428000Y574228D02*
Y577772D01*
X416228Y576000D02*
X419772D01*
X418000Y574228D02*
Y577772D01*
X499827Y634500D02*
X503173D01*
X501500Y632827D02*
Y636173D01*
X529827Y634500D02*
X533173D01*
X531500Y632827D02*
Y636173D01*
X559335Y669500D02*
X563665D01*
X561500Y667335D02*
Y671665D01*
X559335Y649500D02*
X563665D01*
X561500Y647335D02*
Y651665D01*
X222728Y568500D02*
X226272D01*
X224500Y566728D02*
Y570272D01*
X232728Y568500D02*
X236272D01*
X234500Y566728D02*
Y570272D01*
X486000Y607500D02*
X489000D01*
X487500Y606000D02*
Y609000D01*
X486500Y581500D02*
X489500D01*
X488000Y580000D02*
Y583000D01*
M02*
