G04 Layer_Color=16711935*
%FSLAX25Y25*%
%MOIN*%
G70*
G01*
G75*
%ADD23C,0.01000*%
%ADD33C,0.00600*%
D23*
X159000Y767500D02*
X203528D01*
X159000Y305118D02*
X203528D01*
X160000Y565300D02*
Y767500D01*
Y305118D02*
Y504118D01*
X158000Y761500D02*
X160000Y767500D01*
X162000Y761500D01*
X160000Y305118D02*
X162000Y311118D01*
X158000D02*
X160000Y305118D01*
X785433Y272000D02*
Y303528D01*
X205118Y272000D02*
Y303528D01*
X524766Y273000D02*
X785433D01*
X205118D02*
X462585D01*
X779433Y275000D02*
X785433Y273000D01*
X779433Y271000D02*
X785433Y273000D01*
X205118D02*
X211118Y271000D01*
X205118Y273000D02*
X211118Y275000D01*
D33*
X163599Y505719D02*
Y507718D01*
Y506718D01*
X157601D01*
X158601Y505719D01*
X163599Y510717D02*
Y512716D01*
Y511717D01*
X157601D01*
X158601Y510717D01*
X157601Y515715D02*
Y519714D01*
X158601D01*
X162599Y515715D01*
X163599D01*
Y521713D02*
X162599D01*
Y522713D01*
X163599D01*
Y521713D01*
Y529711D02*
X157601D01*
X160600Y526712D01*
Y530710D01*
X163599Y535709D02*
X157601D01*
X160600Y532710D01*
Y536708D01*
X158601Y538708D02*
X157601Y539708D01*
Y541707D01*
X158601Y542706D01*
X159600D01*
X161600Y540707D01*
X162599D02*
X163599D01*
Y546705D02*
X161600Y544706D01*
X159600D01*
X157601Y546705D01*
X163599Y549704D02*
X159600D01*
Y550704D01*
X160600Y551704D01*
X163599D01*
X160600D01*
X159600Y552703D01*
X160600Y553703D01*
X163599D01*
Y555702D02*
X159600D01*
Y556702D01*
X160600Y557702D01*
X163599D01*
X160600D01*
X159600Y558701D01*
X160600Y559701D01*
X163599D01*
Y561700D02*
X161600Y563700D01*
X159600D01*
X157601Y561700D01*
X464185Y269401D02*
X466185D01*
X465185D01*
Y275399D01*
X464185Y274399D01*
X472183Y269401D02*
Y275399D01*
X469183Y272400D01*
X473182D01*
X475182Y275399D02*
X479180D01*
Y274399D01*
X475182Y270401D01*
Y269401D01*
X481180D02*
Y270401D01*
X482179D01*
Y269401D01*
X481180D01*
X489177D02*
Y275399D01*
X486178Y272400D01*
X490177D01*
X492176Y274399D02*
X493176Y275399D01*
X495175D01*
X496175Y274399D01*
Y270401D01*
X495175Y269401D01*
X493176D01*
X492176Y270401D01*
Y274399D01*
X498174D02*
X499174Y275399D01*
X501173D01*
X502173Y274399D01*
Y273400D01*
X500174Y271400D01*
Y270401D02*
Y269401D01*
X506172D02*
X504172Y271400D01*
Y273400D01*
X506172Y275399D01*
X509171Y269401D02*
Y273400D01*
X510170D01*
X511170Y272400D01*
Y269401D01*
Y272400D01*
X512170Y273400D01*
X513169Y272400D01*
Y269401D01*
X515169D02*
Y273400D01*
X516168D01*
X517168Y272400D01*
Y269401D01*
Y272400D01*
X518168Y273400D01*
X519167Y272400D01*
Y269401D01*
X521167D02*
X523166Y271400D01*
Y273400D01*
X521167Y275399D01*
M02*
