G04 Layer_Color=16711935*
%FSLAX25Y25*%
%MOIN*%
G70*
G01*
G75*
%ADD19C,0.07099*%
%ADD20R,0.06706X0.06706*%
%ADD21C,0.06706*%
%ADD22C,0.06312*%
%ADD23R,0.06706X0.06706*%
%ADD24R,0.08083X0.08083*%
%ADD25C,0.08083*%
%ADD26C,0.06800*%
D19*
X287000Y650500D02*
D03*
Y640500D02*
D03*
X288000Y611500D02*
D03*
Y601500D02*
D03*
X285500Y580500D02*
D03*
Y570500D02*
D03*
D20*
X598000Y602500D02*
D03*
X534000Y441000D02*
D03*
X281500Y345000D02*
D03*
X668500Y685500D02*
D03*
X326000Y645000D02*
D03*
X465000Y731000D02*
D03*
X428000Y576000D02*
D03*
X224500Y568500D02*
D03*
D21*
X608000Y602500D02*
D03*
X618000D02*
D03*
X544000Y441000D02*
D03*
X554000D02*
D03*
X564000D02*
D03*
X574000D02*
D03*
X584000D02*
D03*
X594000D02*
D03*
X604000D02*
D03*
X614000D02*
D03*
X624000D02*
D03*
X634000D02*
D03*
X644000D02*
D03*
X654000D02*
D03*
X664000D02*
D03*
X674000D02*
D03*
X684000D02*
D03*
X341500Y345000D02*
D03*
X331500D02*
D03*
X321500D02*
D03*
X311500D02*
D03*
X291500D02*
D03*
X301500D02*
D03*
X568000Y549000D02*
D03*
X558000D02*
D03*
X548000D02*
D03*
X538000D02*
D03*
X528000D02*
D03*
X518000D02*
D03*
X508000D02*
D03*
X498000D02*
D03*
X488000D02*
D03*
X478000D02*
D03*
X468000D02*
D03*
X458000D02*
D03*
X448000D02*
D03*
X438000D02*
D03*
X428000D02*
D03*
X418000D02*
D03*
X408000D02*
D03*
X398000D02*
D03*
X388000D02*
D03*
X578000Y489000D02*
D03*
X568000D02*
D03*
X558000D02*
D03*
X548000D02*
D03*
X538000D02*
D03*
X528000D02*
D03*
X518000D02*
D03*
X508000D02*
D03*
X498000D02*
D03*
X488000D02*
D03*
X478000D02*
D03*
X468000D02*
D03*
X458000D02*
D03*
X448000D02*
D03*
X438000D02*
D03*
X428000D02*
D03*
X418000D02*
D03*
X408000D02*
D03*
X398000D02*
D03*
X388000D02*
D03*
X678500Y685500D02*
D03*
X688500D02*
D03*
X698500D02*
D03*
X708500D02*
D03*
X718500D02*
D03*
X728500D02*
D03*
X738500D02*
D03*
X466000Y645000D02*
D03*
X456000D02*
D03*
X446000D02*
D03*
X436000D02*
D03*
X426000D02*
D03*
X416000D02*
D03*
X406000D02*
D03*
X396000D02*
D03*
X386000D02*
D03*
X376000D02*
D03*
X366000D02*
D03*
X356000D02*
D03*
X346000D02*
D03*
X336000D02*
D03*
X325000Y731000D02*
D03*
X335000D02*
D03*
X345000D02*
D03*
X355000D02*
D03*
X365000D02*
D03*
X375000D02*
D03*
X385000D02*
D03*
X395000D02*
D03*
X405000D02*
D03*
X415000D02*
D03*
X425000D02*
D03*
X435000D02*
D03*
X445000D02*
D03*
X455000D02*
D03*
X418000Y576000D02*
D03*
X234500Y568500D02*
D03*
D22*
X310500Y626000D02*
D03*
X280500D02*
D03*
X544000Y463000D02*
D03*
X514000D02*
D03*
X310500Y593000D02*
D03*
X280500D02*
D03*
X712000Y499000D02*
D03*
Y469000D02*
D03*
X310500Y559000D02*
D03*
X280500D02*
D03*
X501500Y634500D02*
D03*
X531500D02*
D03*
D23*
X578000Y549000D02*
D03*
D24*
X561500Y669500D02*
D03*
D25*
Y649500D02*
D03*
D26*
X487500Y607500D02*
D03*
X488000Y581500D02*
D03*
M02*
