G04 Layer_Color=2752767*
%FSLAX25Y25*%
%MOIN*%
G70*
G01*
G75*
%ADD29C,0.00200*%
%ADD30C,0.00267*%
%ADD31C,0.01000*%
%ADD32C,0.01600*%
%ADD33C,0.00800*%
D29*
X225700Y497200D02*
Y498800D01*
X227300D01*
Y497200D01*
X225700D01*
Y507200D02*
Y508800D01*
X227300D01*
Y507200D01*
X225700D01*
X270700Y564200D02*
Y565800D01*
X272300D01*
Y564200D01*
X270700D01*
X280700D02*
Y565800D01*
X282300D01*
Y564200D01*
X280700D01*
X290700D02*
Y565800D01*
X292300D01*
Y564200D01*
X290700D01*
X300700D02*
Y565800D01*
X302300D01*
Y564200D01*
X300700D01*
X395000Y462700D02*
X394200Y464300D01*
X395800D01*
X395000Y462700D01*
Y432700D02*
X394200Y434300D01*
X395800D01*
X395000Y432700D01*
X323700Y445200D02*
Y446800D01*
X325300D01*
Y445200D01*
X323700D01*
Y455200D02*
Y456800D01*
X325300D01*
Y455200D01*
X323700D01*
Y465200D02*
Y466800D01*
X325300D01*
Y465200D01*
X323700D01*
X266945Y375224D02*
X267345Y375624D01*
X267745D01*
X267345Y376024D01*
X267745Y376424D01*
X267345D01*
X266945Y376824D01*
X266545Y376424D01*
X266145D01*
X266545Y376024D01*
X266145Y375624D01*
X266545D01*
X266945Y375224D01*
Y349633D02*
X267345Y350033D01*
X267745D01*
X267345Y350433D01*
X267745Y350833D01*
X267345D01*
X266945Y351233D01*
X266545Y350833D01*
X266145D01*
X266545Y350433D01*
X266145Y350033D01*
X266545D01*
X266945Y349633D01*
X347500Y408700D02*
X346700Y410300D01*
X348300D01*
X347500Y408700D01*
Y438700D02*
X346700Y440300D01*
X348300D01*
X347500Y438700D01*
X334200Y358200D02*
Y359800D01*
X335800D01*
Y358200D01*
X334200D01*
Y353200D02*
Y354800D01*
X335800D01*
Y353200D01*
X334200D01*
Y348200D02*
Y349800D01*
X335800D01*
Y348200D01*
X334200D01*
X386200Y637700D02*
Y639300D01*
X387800D01*
Y637700D01*
X386200D01*
X396200D02*
Y639300D01*
X397800D01*
Y637700D01*
X396200D01*
X437700Y342200D02*
Y343800D01*
X439300D01*
Y342200D01*
X437700D01*
X447700D02*
Y343800D01*
X449300D01*
Y342200D01*
X447700D01*
X457700D02*
Y343800D01*
X459300D01*
Y342200D01*
X457700D01*
X467700D02*
Y343800D01*
X469300D01*
Y342200D01*
X467700D01*
X477700D02*
Y343800D01*
X479300D01*
Y342200D01*
X477700D01*
X487700D02*
Y343800D01*
X489300D01*
Y342200D01*
X487700D01*
X497700D02*
Y343800D01*
X499300D01*
Y342200D01*
X497700D01*
X507700D02*
Y343800D01*
X509300D01*
Y342200D01*
X507700D01*
X517700D02*
Y343800D01*
X519300D01*
Y342200D01*
X517700D01*
X527700D02*
Y343800D01*
X529300D01*
Y342200D01*
X527700D01*
X537700D02*
Y343800D01*
X539300D01*
Y342200D01*
X537700D01*
X547700D02*
Y343800D01*
X549300D01*
Y342200D01*
X547700D01*
X557700D02*
Y343800D01*
X559300D01*
Y342200D01*
X557700D01*
X567700D02*
Y343800D01*
X569300D01*
Y342200D01*
X567700D01*
X577700D02*
Y343800D01*
X579300D01*
Y342200D01*
X577700D01*
X576700Y427200D02*
Y428800D01*
X578300D01*
Y427200D01*
X576700D01*
X566700D02*
Y428800D01*
X568300D01*
Y427200D01*
X566700D01*
X556700D02*
Y428800D01*
X558300D01*
Y427200D01*
X556700D01*
X546700D02*
Y428800D01*
X548300D01*
Y427200D01*
X546700D01*
X536700D02*
Y428800D01*
X538300D01*
Y427200D01*
X536700D01*
X526700D02*
Y428800D01*
X528300D01*
Y427200D01*
X526700D01*
X516700D02*
Y428800D01*
X518300D01*
Y427200D01*
X516700D01*
X506700D02*
Y428800D01*
X508300D01*
Y427200D01*
X506700D01*
X496700D02*
Y428800D01*
X498300D01*
Y427200D01*
X496700D01*
X486700D02*
Y428800D01*
X488300D01*
Y427200D01*
X486700D01*
X476700D02*
Y428800D01*
X478300D01*
Y427200D01*
X476700D01*
X466700D02*
Y428800D01*
X468300D01*
Y427200D01*
X466700D01*
X456700D02*
Y428800D01*
X458300D01*
Y427200D01*
X456700D01*
X446700D02*
Y428800D01*
X448300D01*
Y427200D01*
X446700D01*
X436700D02*
Y428800D01*
X438300D01*
Y427200D01*
X436700D01*
X316200Y637700D02*
Y639300D01*
X317800D01*
Y637700D01*
X316200D01*
X326200D02*
Y639300D01*
X327800D01*
Y637700D01*
X326200D01*
X553700Y541700D02*
Y543300D01*
X555300D01*
Y541700D01*
X553700D01*
X543700D02*
Y543300D01*
X545300D01*
Y541700D01*
X543700D01*
X533700D02*
Y543300D01*
X535300D01*
Y541700D01*
X533700D01*
X523700D02*
Y543300D01*
X525300D01*
Y541700D01*
X523700D01*
X513700D02*
Y543300D01*
X515300D01*
Y541700D01*
X513700D01*
X503700D02*
Y543300D01*
X505300D01*
Y541700D01*
X503700D01*
X493700D02*
Y543300D01*
X495300D01*
Y541700D01*
X493700D01*
X483700D02*
Y543300D01*
X485300D01*
Y541700D01*
X483700D01*
X473700D02*
Y543300D01*
X475300D01*
Y541700D01*
X473700D01*
X463700D02*
Y543300D01*
X465300D01*
Y541700D01*
X463700D01*
X453700D02*
Y543300D01*
X455300D01*
Y541700D01*
X453700D01*
X443700D02*
Y543300D01*
X445300D01*
Y541700D01*
X443700D01*
X433700D02*
Y543300D01*
X435300D01*
Y541700D01*
X433700D01*
X423700D02*
Y543300D01*
X425300D01*
Y541700D01*
X423700D01*
X413700D02*
Y543300D01*
X415300D01*
Y541700D01*
X413700D01*
X403700D02*
Y543300D01*
X405300D01*
Y541700D01*
X403700D01*
X393700D02*
Y543300D01*
X395300D01*
Y541700D01*
X393700D01*
X383700D02*
Y543300D01*
X385300D01*
Y541700D01*
X383700D01*
X373700D02*
Y543300D01*
X375300D01*
Y541700D01*
X373700D01*
X363700D02*
Y543300D01*
X365300D01*
Y541700D01*
X363700D01*
X553700Y481700D02*
Y483300D01*
X555300D01*
Y481700D01*
X553700D01*
X543700D02*
Y483300D01*
X545300D01*
Y481700D01*
X543700D01*
X533700D02*
Y483300D01*
X535300D01*
Y481700D01*
X533700D01*
X523700D02*
Y483300D01*
X525300D01*
Y481700D01*
X523700D01*
X513700D02*
Y483300D01*
X515300D01*
Y481700D01*
X513700D01*
X503700D02*
Y483300D01*
X505300D01*
Y481700D01*
X503700D01*
X493700D02*
Y483300D01*
X495300D01*
Y481700D01*
X493700D01*
X483700D02*
Y483300D01*
X485300D01*
Y481700D01*
X483700D01*
X473700D02*
Y483300D01*
X475300D01*
Y481700D01*
X473700D01*
X463700D02*
Y483300D01*
X465300D01*
Y481700D01*
X463700D01*
X453700D02*
Y483300D01*
X455300D01*
Y481700D01*
X453700D01*
X443700D02*
Y483300D01*
X445300D01*
Y481700D01*
X443700D01*
X433700D02*
Y483300D01*
X435300D01*
Y481700D01*
X433700D01*
X423700D02*
Y483300D01*
X425300D01*
Y481700D01*
X423700D01*
X413700D02*
Y483300D01*
X415300D01*
Y481700D01*
X413700D01*
X403700D02*
Y483300D01*
X405300D01*
Y481700D01*
X403700D01*
X393700D02*
Y483300D01*
X395300D01*
Y481700D01*
X393700D01*
X383700D02*
Y483300D01*
X385300D01*
Y481700D01*
X383700D01*
X373700D02*
Y483300D01*
X375300D01*
Y481700D01*
X373700D01*
X363700D02*
Y483300D01*
X365300D01*
Y481700D01*
X363700D01*
X531700Y592200D02*
Y593800D01*
X533300D01*
Y592200D01*
X531700D01*
X541700D02*
Y593800D01*
X543300D01*
Y592200D01*
X541700D01*
X551700D02*
Y593800D01*
X553300D01*
Y592200D01*
X551700D01*
X435000Y580200D02*
X434200Y581800D01*
X435800D01*
X435000Y580200D01*
Y610200D02*
X434200Y611800D01*
X435800D01*
X435000Y610200D01*
X479700Y643700D02*
X480100Y644500D01*
X479700Y645300D01*
X480500Y644900D01*
X481300Y645300D01*
X480900Y644500D01*
X481300Y643700D01*
X480500Y644100D01*
X479700Y643700D01*
X469700D02*
X470100Y644500D01*
X469700Y645300D01*
X470500Y644900D01*
X471300Y645300D01*
X470900Y644500D01*
X471300Y643700D01*
X470500Y644100D01*
X469700Y643700D01*
X422200Y559200D02*
Y560800D01*
X423800D01*
Y559200D01*
X422200D01*
X412200D02*
Y560800D01*
X413800D01*
Y559200D01*
X412200D01*
X616101Y380600D02*
X617301Y381800D01*
X618501D01*
X617301Y383000D01*
X618501Y384200D01*
X617301D01*
X616101Y385400D01*
X614901Y384200D01*
X613701D01*
X614901Y383000D01*
X613701Y381800D01*
X614901D01*
X616101Y380600D01*
X613701Y368600D02*
X614901Y371000D01*
X613701Y373400D01*
X616101Y372200D01*
X618501Y373400D01*
X617301Y371000D01*
X618501Y368600D01*
X616101Y369800D01*
X613701Y368600D01*
X616101Y356600D02*
X613701Y361400D01*
X618501D01*
X616101Y356600D01*
X613701Y344600D02*
Y349400D01*
X618501D01*
Y344600D01*
X613701D01*
D30*
X385800Y412000D02*
G03*
X385800Y412000I-800J0D01*
G01*
X405800D02*
G03*
X405800Y412000I-800J0D01*
G01*
D31*
X613701Y315998D02*
Y310000D01*
X616700D01*
X617699Y311000D01*
Y314998D01*
X616700Y315998D01*
X613701D01*
X619699Y313999D02*
Y310000D01*
Y311999D01*
X620698Y312999D01*
X621698Y313999D01*
X622698D01*
X625697Y310000D02*
X627696D01*
X626697D01*
Y313999D01*
X625697D01*
X630695Y310000D02*
X632695D01*
X631695D01*
Y315998D01*
X630695D01*
X635694Y310000D02*
X637693D01*
X636693D01*
Y315998D01*
X635694D01*
X646690D02*
Y310000D01*
X649689D01*
X650689Y311000D01*
Y314998D01*
X649689Y315998D01*
X646690D01*
X652688Y313999D02*
Y310000D01*
Y311999D01*
X653688Y312999D01*
X654688Y313999D01*
X655687D01*
X659686D02*
X661685D01*
X662685Y312999D01*
Y310000D01*
X659686D01*
X658686Y311000D01*
X659686Y311999D01*
X662685D01*
X664684Y313999D02*
Y311000D01*
X665684Y310000D01*
X666684Y311000D01*
X667683Y310000D01*
X668683Y311000D01*
Y313999D01*
X670682Y310000D02*
X672682D01*
X671682D01*
Y313999D01*
X670682D01*
X675681Y310000D02*
Y313999D01*
X678680D01*
X679679Y312999D01*
Y310000D01*
X683678Y308001D02*
X684678D01*
X685677Y309000D01*
Y313999D01*
X682679D01*
X681679Y312999D01*
Y311000D01*
X682679Y310000D01*
X685677D01*
X687677D02*
Y311000D01*
X688677D01*
Y310000D01*
X687677D01*
X668087Y380000D02*
X664088D01*
X668087Y383999D01*
Y384998D01*
X667087Y385998D01*
X665088D01*
X664088Y384998D01*
X737668Y380000D02*
X733670D01*
X737668Y383999D01*
Y384998D01*
X736669Y385998D01*
X734669D01*
X733670Y384998D01*
X739668Y385998D02*
X743667D01*
Y384998D01*
X739668Y381000D01*
Y380000D01*
X745666D02*
Y381000D01*
X746665D01*
Y380000D01*
X745666D01*
X754663Y385998D02*
X750664D01*
Y382999D01*
X752664Y383999D01*
X753663D01*
X754663Y382999D01*
Y381000D01*
X753663Y380000D01*
X751664D01*
X750664Y381000D01*
X760661Y385998D02*
X756662D01*
Y382999D01*
X758662Y383999D01*
X759661D01*
X760661Y382999D01*
Y381000D01*
X759661Y380000D01*
X757662D01*
X756662Y381000D01*
X762660D02*
X763660Y380000D01*
X765659D01*
X766659Y381000D01*
Y384998D01*
X765659Y385998D01*
X763660D01*
X762660Y384998D01*
Y383999D01*
X763660Y382999D01*
X766659D01*
X768658Y380000D02*
Y383999D01*
X769658D01*
X770658Y382999D01*
Y380000D01*
Y382999D01*
X771657Y383999D01*
X772657Y382999D01*
Y380000D01*
X774656D02*
X776656D01*
X775656D01*
Y383999D01*
X774656D01*
X779655Y380000D02*
X781654D01*
X780654D01*
Y385998D01*
X779655D01*
X792651Y380000D02*
X790651Y381999D01*
Y383999D01*
X792651Y385998D01*
X795650Y384998D02*
X796649Y385998D01*
X798649D01*
X799648Y384998D01*
Y381000D01*
X798649Y380000D01*
X796649D01*
X795650Y381000D01*
Y384998D01*
X801648Y380000D02*
Y381000D01*
X802647D01*
Y380000D01*
X801648D01*
X806646Y385998D02*
X810645D01*
Y384998D01*
X806646Y381000D01*
Y380000D01*
X812644D02*
Y383999D01*
X813644D01*
X814643Y382999D01*
Y380000D01*
Y382999D01*
X815643Y383999D01*
X816643Y382999D01*
Y380000D01*
X818642D02*
Y383999D01*
X819642D01*
X820642Y382999D01*
Y380000D01*
Y382999D01*
X821641Y383999D01*
X822641Y382999D01*
Y380000D01*
X824640D02*
X826640Y381999D01*
Y383999D01*
X824640Y385998D01*
X868030Y380000D02*
Y385998D01*
X871029D01*
X872029Y384998D01*
Y382999D01*
X871029Y381999D01*
X868030D01*
X874028Y385998D02*
X878027D01*
X876027D01*
Y380000D01*
X880026Y385998D02*
Y380000D01*
Y382999D01*
X884025D01*
Y385998D01*
Y380000D01*
X918418D02*
Y385998D01*
X921417D01*
X922416Y384998D01*
Y382999D01*
X921417Y381999D01*
X918418D01*
X920417D02*
X922416Y380000D01*
X925415D02*
X927415D01*
X928415Y381000D01*
Y382999D01*
X927415Y383999D01*
X925415D01*
X924416Y382999D01*
Y381000D01*
X925415Y380000D01*
X930414Y383999D02*
Y381000D01*
X931413Y380000D01*
X934412D01*
Y383999D01*
X936412Y380000D02*
Y383999D01*
X939411D01*
X940411Y382999D01*
Y380000D01*
X946409Y385998D02*
Y380000D01*
X943410D01*
X942410Y381000D01*
Y382999D01*
X943410Y383999D01*
X946409D01*
X668087Y368000D02*
X664088D01*
X668087Y371999D01*
Y372998D01*
X667087Y373998D01*
X665088D01*
X664088Y372998D01*
X733670D02*
X734669Y373998D01*
X736669D01*
X737668Y372998D01*
Y371999D01*
X736669Y370999D01*
X735669D01*
X736669D01*
X737668Y369999D01*
Y369000D01*
X736669Y368000D01*
X734669D01*
X733670Y369000D01*
X739668Y368000D02*
X741667D01*
X740667D01*
Y373998D01*
X739668Y372998D01*
X744666Y368000D02*
Y369000D01*
X745666D01*
Y368000D01*
X744666D01*
X752664D02*
Y373998D01*
X749664Y370999D01*
X753663D01*
X755663Y369000D02*
X756662Y368000D01*
X758662D01*
X759661Y369000D01*
Y372998D01*
X758662Y373998D01*
X756662D01*
X755663Y372998D01*
Y371999D01*
X756662Y370999D01*
X759661D01*
X765659Y373998D02*
X763660Y372998D01*
X761661Y370999D01*
Y369000D01*
X762660Y368000D01*
X764660D01*
X765659Y369000D01*
Y369999D01*
X764660Y370999D01*
X761661D01*
X767659Y368000D02*
Y371999D01*
X768658D01*
X769658Y370999D01*
Y368000D01*
Y370999D01*
X770658Y371999D01*
X771657Y370999D01*
Y368000D01*
X773657D02*
X775656D01*
X774656D01*
Y371999D01*
X773657D01*
X778655Y368000D02*
X780654D01*
X779655D01*
Y373998D01*
X778655D01*
X791651Y368000D02*
X789652Y369999D01*
Y371999D01*
X791651Y373998D01*
X794650Y372998D02*
X795650Y373998D01*
X797649D01*
X798649Y372998D01*
Y369000D01*
X797649Y368000D01*
X795650D01*
X794650Y369000D01*
Y372998D01*
X800648Y368000D02*
Y369000D01*
X801648D01*
Y368000D01*
X800648D01*
X805646Y372998D02*
X806646Y373998D01*
X808645D01*
X809645Y372998D01*
Y371999D01*
X808645Y370999D01*
X809645Y369999D01*
Y369000D01*
X808645Y368000D01*
X806646D01*
X805646Y369000D01*
Y369999D01*
X806646Y370999D01*
X805646Y371999D01*
Y372998D01*
X806646Y370999D02*
X808645D01*
X811644Y368000D02*
Y371999D01*
X812644D01*
X813644Y370999D01*
Y368000D01*
Y370999D01*
X814643Y371999D01*
X815643Y370999D01*
Y368000D01*
X817642D02*
Y371999D01*
X818642D01*
X819642Y370999D01*
Y368000D01*
Y370999D01*
X820642Y371999D01*
X821641Y370999D01*
Y368000D01*
X823641D02*
X825640Y369999D01*
Y371999D01*
X823641Y373998D01*
X868030Y368000D02*
Y373998D01*
X871029D01*
X872029Y372998D01*
Y370999D01*
X871029Y369999D01*
X868030D01*
X874028Y373998D02*
X878027D01*
X876027D01*
Y368000D01*
X880026Y373998D02*
Y368000D01*
Y370999D01*
X884025D01*
Y373998D01*
Y368000D01*
X918418D02*
Y373998D01*
X921417D01*
X922416Y372998D01*
Y370999D01*
X921417Y369999D01*
X918418D01*
X920417D02*
X922416Y368000D01*
X925415D02*
X927415D01*
X928415Y369000D01*
Y370999D01*
X927415Y371999D01*
X925415D01*
X924416Y370999D01*
Y369000D01*
X925415Y368000D01*
X930414Y371999D02*
Y369000D01*
X931413Y368000D01*
X934412D01*
Y371999D01*
X936412Y368000D02*
Y371999D01*
X939411D01*
X940411Y370999D01*
Y368000D01*
X946409Y373998D02*
Y368000D01*
X943410D01*
X942410Y369000D01*
Y370999D01*
X943410Y371999D01*
X946409D01*
X668087Y361998D02*
X666088Y360998D01*
X664088Y358999D01*
Y357000D01*
X665088Y356000D01*
X667087D01*
X668087Y357000D01*
Y357999D01*
X667087Y358999D01*
X664088D01*
X733670Y360998D02*
X734669Y361998D01*
X736669D01*
X737668Y360998D01*
Y359999D01*
X736669Y358999D01*
X735669D01*
X736669D01*
X737668Y357999D01*
Y357000D01*
X736669Y356000D01*
X734669D01*
X733670Y357000D01*
X739668Y360998D02*
X740667Y361998D01*
X742667D01*
X743667Y360998D01*
Y359999D01*
X742667Y358999D01*
X741667D01*
X742667D01*
X743667Y357999D01*
Y357000D01*
X742667Y356000D01*
X740667D01*
X739668Y357000D01*
X745666Y356000D02*
Y357000D01*
X746665D01*
Y356000D01*
X745666D01*
X753663D02*
Y361998D01*
X750664Y358999D01*
X754663D01*
X760661Y361998D02*
X758662Y360998D01*
X756662Y358999D01*
Y357000D01*
X757662Y356000D01*
X759661D01*
X760661Y357000D01*
Y357999D01*
X759661Y358999D01*
X756662D01*
X766659Y361998D02*
X762660D01*
Y358999D01*
X764660Y359999D01*
X765659D01*
X766659Y358999D01*
Y357000D01*
X765659Y356000D01*
X763660D01*
X762660Y357000D01*
X768658Y356000D02*
Y359999D01*
X769658D01*
X770658Y358999D01*
Y356000D01*
Y358999D01*
X771657Y359999D01*
X772657Y358999D01*
Y356000D01*
X774656D02*
X776656D01*
X775656D01*
Y359999D01*
X774656D01*
X779655Y356000D02*
X781654D01*
X780654D01*
Y361998D01*
X779655D01*
X792651Y356000D02*
X790651Y357999D01*
Y359999D01*
X792651Y361998D01*
X795650Y360998D02*
X796649Y361998D01*
X798649D01*
X799648Y360998D01*
Y357000D01*
X798649Y356000D01*
X796649D01*
X795650Y357000D01*
Y360998D01*
X801648Y356000D02*
Y357000D01*
X802647D01*
Y356000D01*
X801648D01*
X806646Y360998D02*
X807646Y361998D01*
X809645D01*
X810645Y360998D01*
Y359999D01*
X809645Y358999D01*
X810645Y357999D01*
Y357000D01*
X809645Y356000D01*
X807646D01*
X806646Y357000D01*
Y357999D01*
X807646Y358999D01*
X806646Y359999D01*
Y360998D01*
X807646Y358999D02*
X809645D01*
X816643Y361998D02*
X812644D01*
Y358999D01*
X814643Y359999D01*
X815643D01*
X816643Y358999D01*
Y357000D01*
X815643Y356000D01*
X813644D01*
X812644Y357000D01*
X818642Y356000D02*
Y359999D01*
X819642D01*
X820642Y358999D01*
Y356000D01*
Y358999D01*
X821641Y359999D01*
X822641Y358999D01*
Y356000D01*
X824640D02*
Y359999D01*
X825640D01*
X826640Y358999D01*
Y356000D01*
Y358999D01*
X827639Y359999D01*
X828639Y358999D01*
Y356000D01*
X830638D02*
X832638Y357999D01*
Y359999D01*
X830638Y361998D01*
X868030Y356000D02*
Y361998D01*
X871029D01*
X872029Y360998D01*
Y358999D01*
X871029Y357999D01*
X868030D01*
X874028Y361998D02*
X878027D01*
X876027D01*
Y356000D01*
X880026Y361998D02*
Y356000D01*
Y358999D01*
X884025D01*
Y361998D01*
Y356000D01*
X918418D02*
Y361998D01*
X921417D01*
X922416Y360998D01*
Y358999D01*
X921417Y357999D01*
X918418D01*
X920417D02*
X922416Y356000D01*
X925415D02*
X927415D01*
X928415Y357000D01*
Y358999D01*
X927415Y359999D01*
X925415D01*
X924416Y358999D01*
Y357000D01*
X925415Y356000D01*
X930414Y359999D02*
Y357000D01*
X931413Y356000D01*
X934412D01*
Y359999D01*
X936412Y356000D02*
Y359999D01*
X939411D01*
X940411Y358999D01*
Y356000D01*
X946409Y361998D02*
Y356000D01*
X943410D01*
X942410Y357000D01*
Y358999D01*
X943410Y359999D01*
X946409D01*
X664088Y345000D02*
X665088Y344000D01*
X667087D01*
X668087Y345000D01*
Y348998D01*
X667087Y349998D01*
X665088D01*
X664088Y348998D01*
Y347999D01*
X665088Y346999D01*
X668087D01*
X670086Y344000D02*
X672086D01*
X671086D01*
Y349998D01*
X670086Y348998D01*
X733670D02*
X734669Y349998D01*
X736669D01*
X737668Y348998D01*
Y347999D01*
X736669Y346999D01*
X735669D01*
X736669D01*
X737668Y345999D01*
Y345000D01*
X736669Y344000D01*
X734669D01*
X733670Y345000D01*
X743667Y349998D02*
X739668D01*
Y346999D01*
X741667Y347999D01*
X742667D01*
X743667Y346999D01*
Y345000D01*
X742667Y344000D01*
X740667D01*
X739668Y345000D01*
X745666Y344000D02*
Y345000D01*
X746665D01*
Y344000D01*
X745666D01*
X753663D02*
Y349998D01*
X750664Y346999D01*
X754663D01*
X756662Y348998D02*
X757662Y349998D01*
X759661D01*
X760661Y348998D01*
Y347999D01*
X759661Y346999D01*
X758662D01*
X759661D01*
X760661Y345999D01*
Y345000D01*
X759661Y344000D01*
X757662D01*
X756662Y345000D01*
X762660Y348998D02*
X763660Y349998D01*
X765659D01*
X766659Y348998D01*
Y347999D01*
X765659Y346999D01*
X764660D01*
X765659D01*
X766659Y345999D01*
Y345000D01*
X765659Y344000D01*
X763660D01*
X762660Y345000D01*
X768658Y344000D02*
Y347999D01*
X769658D01*
X770658Y346999D01*
Y344000D01*
Y346999D01*
X771657Y347999D01*
X772657Y346999D01*
Y344000D01*
X774656D02*
X776656D01*
X775656D01*
Y347999D01*
X774656D01*
X779655Y344000D02*
X781654D01*
X780654D01*
Y349998D01*
X779655D01*
X792651Y344000D02*
X790651Y345999D01*
Y347999D01*
X792651Y349998D01*
X795650Y348998D02*
X796649Y349998D01*
X798649D01*
X799648Y348998D01*
Y345000D01*
X798649Y344000D01*
X796649D01*
X795650Y345000D01*
Y348998D01*
X801648Y344000D02*
Y345000D01*
X802647D01*
Y344000D01*
X801648D01*
X806646Y345000D02*
X807646Y344000D01*
X809645D01*
X810645Y345000D01*
Y348998D01*
X809645Y349998D01*
X807646D01*
X806646Y348998D01*
Y347999D01*
X807646Y346999D01*
X810645D01*
X812644Y344000D02*
Y347999D01*
X813644D01*
X814643Y346999D01*
Y344000D01*
Y346999D01*
X815643Y347999D01*
X816643Y346999D01*
Y344000D01*
X818642D02*
Y347999D01*
X819642D01*
X820642Y346999D01*
Y344000D01*
Y346999D01*
X821641Y347999D01*
X822641Y346999D01*
Y344000D01*
X824640D02*
X826640Y345999D01*
Y347999D01*
X824640Y349998D01*
X868030Y344000D02*
Y349998D01*
X871029D01*
X872029Y348998D01*
Y346999D01*
X871029Y345999D01*
X868030D01*
X874028Y349998D02*
X878027D01*
X876027D01*
Y344000D01*
X880026Y349998D02*
Y344000D01*
Y346999D01*
X884025D01*
Y349998D01*
Y344000D01*
X918418D02*
Y349998D01*
X921417D01*
X922416Y348998D01*
Y346999D01*
X921417Y345999D01*
X918418D01*
X920417D02*
X922416Y344000D01*
X925415D02*
X927415D01*
X928415Y345000D01*
Y346999D01*
X927415Y347999D01*
X925415D01*
X924416Y346999D01*
Y345000D01*
X925415Y344000D01*
X930414Y347999D02*
Y345000D01*
X931413Y344000D01*
X934412D01*
Y347999D01*
X936412Y344000D02*
Y347999D01*
X939411D01*
X940411Y346999D01*
Y344000D01*
X946409Y349998D02*
Y344000D01*
X943410D01*
X942410Y345000D01*
Y346999D01*
X943410Y347999D01*
X946409D01*
X668087Y332000D02*
X664088D01*
X668087Y335999D01*
Y336998D01*
X667087Y337998D01*
X665088D01*
X664088Y336998D01*
X736669Y332000D02*
Y337998D01*
X733670Y334999D01*
X737668D01*
X739668Y336998D02*
X740667Y337998D01*
X742667D01*
X743667Y336998D01*
Y335999D01*
X742667Y334999D01*
X741667D01*
X742667D01*
X743667Y333999D01*
Y333000D01*
X742667Y332000D01*
X740667D01*
X739668Y333000D01*
X745666Y332000D02*
Y333000D01*
X746665D01*
Y332000D01*
X745666D01*
X750664Y336998D02*
X751664Y337998D01*
X753663D01*
X754663Y336998D01*
Y335999D01*
X753663Y334999D01*
X752664D01*
X753663D01*
X754663Y333999D01*
Y333000D01*
X753663Y332000D01*
X751664D01*
X750664Y333000D01*
X756662Y336998D02*
X757662Y337998D01*
X759661D01*
X760661Y336998D01*
Y333000D01*
X759661Y332000D01*
X757662D01*
X756662Y333000D01*
Y336998D01*
X762660Y337998D02*
X766659D01*
Y336998D01*
X762660Y333000D01*
Y332000D01*
X768658D02*
Y335999D01*
X769658D01*
X770658Y334999D01*
Y332000D01*
Y334999D01*
X771657Y335999D01*
X772657Y334999D01*
Y332000D01*
X774656D02*
X776656D01*
X775656D01*
Y335999D01*
X774656D01*
X779655Y332000D02*
X781654D01*
X780654D01*
Y337998D01*
X779655D01*
X792651Y332000D02*
X790651Y333999D01*
Y335999D01*
X792651Y337998D01*
X795650Y332000D02*
X797649D01*
X796649D01*
Y337998D01*
X795650Y336998D01*
X800648Y332000D02*
Y333000D01*
X801648D01*
Y332000D01*
X800648D01*
X805646D02*
X807646D01*
X806646D01*
Y337998D01*
X805646Y336998D01*
X810645Y332000D02*
Y335999D01*
X811644D01*
X812644Y334999D01*
Y332000D01*
Y334999D01*
X813644Y335999D01*
X814643Y334999D01*
Y332000D01*
X816643D02*
Y335999D01*
X817642D01*
X818642Y334999D01*
Y332000D01*
Y334999D01*
X819642Y335999D01*
X820642Y334999D01*
Y332000D01*
X822641D02*
X824640Y333999D01*
Y335999D01*
X822641Y337998D01*
X868030Y332000D02*
Y337998D01*
X871029D01*
X872029Y336998D01*
Y334999D01*
X871029Y333999D01*
X868030D01*
X874028Y337998D02*
X878027D01*
X876027D01*
Y332000D01*
X880026Y337998D02*
Y332000D01*
Y334999D01*
X884025D01*
Y337998D01*
Y332000D01*
X918418D02*
Y337998D01*
X921417D01*
X922416Y336998D01*
Y334999D01*
X921417Y333999D01*
X918418D01*
X920417D02*
X922416Y332000D01*
X925415D02*
X927415D01*
X928415Y333000D01*
Y334999D01*
X927415Y335999D01*
X925415D01*
X924416Y334999D01*
Y333000D01*
X925415Y332000D01*
X930414Y335999D02*
Y333000D01*
X931413Y332000D01*
X934412D01*
Y335999D01*
X936412Y332000D02*
Y335999D01*
X939411D01*
X940411Y334999D01*
Y332000D01*
X946409Y337998D02*
Y332000D01*
X943410D01*
X942410Y333000D01*
Y334999D01*
X943410Y335999D01*
X946409D01*
X664088Y320000D02*
X666088D01*
X665088D01*
Y325998D01*
X664088Y324998D01*
X669087D02*
X670086Y325998D01*
X672086D01*
X673085Y324998D01*
Y321000D01*
X672086Y320000D01*
X670086D01*
X669087Y321000D01*
Y324998D01*
X675085D02*
X676085Y325998D01*
X678084D01*
X679083Y324998D01*
Y323999D01*
X678084Y322999D01*
X677084D01*
X678084D01*
X679083Y321999D01*
Y321000D01*
X678084Y320000D01*
X676085D01*
X675085Y321000D01*
X689884Y325998D02*
X693882D01*
X691883D01*
Y320000D01*
X696881D02*
X698881D01*
X699880Y321000D01*
Y322999D01*
X698881Y323999D01*
X696881D01*
X695882Y322999D01*
Y321000D01*
X696881Y320000D01*
X702879Y324998D02*
Y323999D01*
X701880D01*
X703879D01*
X702879D01*
Y321000D01*
X703879Y320000D01*
X707878Y323999D02*
X709877D01*
X710877Y322999D01*
Y320000D01*
X707878D01*
X706878Y321000D01*
X707878Y321999D01*
X710877D01*
X712876Y320000D02*
X714875D01*
X713876D01*
Y325998D01*
X712876D01*
D32*
X618499Y400398D02*
X617300Y401598D01*
X614900D01*
X613701Y400398D01*
Y399199D01*
X614900Y397999D01*
X617300D01*
X618499Y396799D01*
Y395600D01*
X617300Y394400D01*
X614900D01*
X613701Y395600D01*
X620898Y399199D02*
Y395600D01*
X622098Y394400D01*
X625697D01*
Y393200D01*
X624497Y392001D01*
X623298D01*
X625697Y394400D02*
Y399199D01*
X628096Y394400D02*
Y399199D01*
X629296D01*
X630495Y397999D01*
Y394400D01*
Y397999D01*
X631695Y399199D01*
X632895Y397999D01*
Y394400D01*
X635294Y401598D02*
Y394400D01*
X638893D01*
X640092Y395600D01*
Y396799D01*
Y397999D01*
X638893Y399199D01*
X635294D01*
X643691Y394400D02*
X646090D01*
X647290Y395600D01*
Y397999D01*
X646090Y399199D01*
X643691D01*
X642491Y397999D01*
Y395600D01*
X643691Y394400D01*
X649689D02*
X652088D01*
X650889D01*
Y401598D01*
X649689D01*
X664088D02*
Y394400D01*
Y397999D01*
X668887D01*
Y401598D01*
Y394400D01*
X671286D02*
X673685D01*
X672486D01*
Y399199D01*
X671286D01*
X678484Y400398D02*
Y399199D01*
X677284D01*
X679683D01*
X678484D01*
Y395600D01*
X679683Y394400D01*
X695278Y400398D02*
X694079Y401598D01*
X691679D01*
X690480Y400398D01*
Y395600D01*
X691679Y394400D01*
X694079D01*
X695278Y395600D01*
X698877Y394400D02*
X701276D01*
X702476Y395600D01*
Y397999D01*
X701276Y399199D01*
X698877D01*
X697678Y397999D01*
Y395600D01*
X698877Y394400D01*
X704875Y399199D02*
Y395600D01*
X706075Y394400D01*
X709674D01*
Y399199D01*
X712073Y394400D02*
Y399199D01*
X715672D01*
X716871Y397999D01*
Y394400D01*
X720470Y400398D02*
Y399199D01*
X719271D01*
X721670D01*
X720470D01*
Y395600D01*
X721670Y394400D01*
X738468Y401598D02*
X733670D01*
Y397999D01*
X736069D01*
X733670D01*
Y394400D01*
X740867D02*
X743267D01*
X742067D01*
Y399199D01*
X740867D01*
X746865Y394400D02*
Y399199D01*
X750464D01*
X751664Y397999D01*
Y394400D01*
X754063D02*
X756462D01*
X755263D01*
Y399199D01*
X754063D01*
X760061Y394400D02*
X763660D01*
X764860Y395600D01*
X763660Y396799D01*
X761261D01*
X760061Y397999D01*
X761261Y399199D01*
X764860D01*
X767259Y401598D02*
Y394400D01*
Y397999D01*
X768459Y399199D01*
X770858D01*
X772057Y397999D01*
Y394400D01*
X778055D02*
X775656D01*
X774457Y395600D01*
Y397999D01*
X775656Y399199D01*
X778055D01*
X779255Y397999D01*
Y396799D01*
X774457D01*
X786453Y401598D02*
Y394400D01*
X782854D01*
X781654Y395600D01*
Y397999D01*
X782854Y399199D01*
X786453D01*
X796049Y401598D02*
Y394400D01*
Y397999D01*
X800848D01*
Y401598D01*
Y394400D01*
X804447D02*
X806846D01*
X808046Y395600D01*
Y397999D01*
X806846Y399199D01*
X804447D01*
X803247Y397999D01*
Y395600D01*
X804447Y394400D01*
X810445D02*
X812844D01*
X811644D01*
Y401598D01*
X810445D01*
X820042Y394400D02*
X817642D01*
X816443Y395600D01*
Y397999D01*
X817642Y399199D01*
X820042D01*
X821241Y397999D01*
Y396799D01*
X816443D01*
X835637Y400398D02*
X834437Y401598D01*
X832038D01*
X830838Y400398D01*
Y399199D01*
X832038Y397999D01*
X834437D01*
X835637Y396799D01*
Y395600D01*
X834437Y394400D01*
X832038D01*
X830838Y395600D01*
X838036Y394400D02*
X840435D01*
X839235D01*
Y399199D01*
X838036D01*
X844034D02*
X848833D01*
X844034Y394400D01*
X848833D01*
X854830D02*
X852431D01*
X851232Y395600D01*
Y397999D01*
X852431Y399199D01*
X854830D01*
X856030Y397999D01*
Y396799D01*
X851232D01*
X868030Y394400D02*
Y401598D01*
X871629D01*
X872829Y400398D01*
Y397999D01*
X871629Y396799D01*
X868030D01*
X875228Y394400D02*
X877627D01*
X876427D01*
Y401598D01*
X875228D01*
X882425Y399199D02*
X884825D01*
X886024Y397999D01*
Y394400D01*
X882425D01*
X881226Y395600D01*
X882425Y396799D01*
X886024D01*
X889623Y400398D02*
Y399199D01*
X888424D01*
X890823D01*
X889623D01*
Y395600D01*
X890823Y394400D01*
X898020D02*
X895621D01*
X894422Y395600D01*
Y397999D01*
X895621Y399199D01*
X898020D01*
X899220Y397999D01*
Y396799D01*
X894422D01*
X906418Y401598D02*
Y394400D01*
X902819D01*
X901619Y395600D01*
Y397999D01*
X902819Y399199D01*
X906418D01*
X918418Y401598D02*
Y394400D01*
Y397999D01*
X923216D01*
Y401598D01*
Y394400D01*
X926815D02*
X929214D01*
X930414Y395600D01*
Y397999D01*
X929214Y399199D01*
X926815D01*
X925615Y397999D01*
Y395600D01*
X926815Y394400D01*
X932813D02*
X935212D01*
X934013D01*
Y401598D01*
X932813D01*
X942410Y394400D02*
X940011D01*
X938811Y395600D01*
Y397999D01*
X940011Y399199D01*
X942410D01*
X943610Y397999D01*
Y396799D01*
X938811D01*
X953206Y401598D02*
X958005D01*
X955606D01*
Y394400D01*
X960404Y399199D02*
Y395600D01*
X961604Y394400D01*
X965203D01*
Y393200D01*
X964003Y392001D01*
X962803D01*
X965203Y394400D02*
Y399199D01*
X967602Y392001D02*
Y399199D01*
X971201D01*
X972400Y397999D01*
Y395600D01*
X971201Y394400D01*
X967602D01*
X978398D02*
X975999D01*
X974800Y395600D01*
Y397999D01*
X975999Y399199D01*
X978398D01*
X979598Y397999D01*
Y396799D01*
X974800D01*
X604901Y405200D02*
X991598D01*
X604901Y389000D02*
X991598D01*
X604901Y405200D02*
Y317000D01*
X991598Y405200D02*
Y317000D01*
X659688Y405200D02*
Y317000D01*
X729270Y405200D02*
Y317000D01*
X863630Y405200D02*
Y317000D01*
X914018Y405200D02*
Y317000D01*
X604901Y329000D02*
X991598D01*
X604901Y317000D02*
X991598D01*
D33*
X618501Y335000D02*
G03*
X618501Y335000I-2400J0D01*
G01*
M02*
