G04 Layer_Color=255*
%FSLAX25Y25*%
%MOIN*%
G70*
G01*
G75*
%ADD11C,0.05905*%
%ADD12R,0.05905X0.05905*%
%ADD13C,0.07283*%
%ADD14R,0.07283X0.07283*%
%ADD15R,0.05905X0.05905*%
%ADD16C,0.05512*%
%ADD17O,0.07874X0.03937*%
%ADD18O,0.07874X0.03937*%
%ADD19C,0.06299*%
D11*
X226500Y498000D02*
D03*
X281500Y565000D02*
D03*
X291500D02*
D03*
X301500D02*
D03*
X324500Y446000D02*
D03*
Y456000D02*
D03*
X266945Y376024D02*
D03*
X387000Y638500D02*
D03*
X448500Y343000D02*
D03*
X458500D02*
D03*
X468500D02*
D03*
X478500D02*
D03*
X488500D02*
D03*
X498500D02*
D03*
X508500D02*
D03*
X518500D02*
D03*
X528500D02*
D03*
X538500D02*
D03*
X548500D02*
D03*
X558500D02*
D03*
X568500D02*
D03*
X578500D02*
D03*
X567500Y428000D02*
D03*
X557500D02*
D03*
X547500D02*
D03*
X537500D02*
D03*
X527500D02*
D03*
X517500D02*
D03*
X507500D02*
D03*
X497500D02*
D03*
X487500D02*
D03*
X477500D02*
D03*
X467500D02*
D03*
X457500D02*
D03*
X447500D02*
D03*
X437500D02*
D03*
X317000Y638500D02*
D03*
X554500Y542500D02*
D03*
X544500D02*
D03*
X534500D02*
D03*
X524500D02*
D03*
X514500D02*
D03*
X504500D02*
D03*
X494500D02*
D03*
X484500D02*
D03*
X474500D02*
D03*
X464500D02*
D03*
X454500D02*
D03*
X444500D02*
D03*
X434500D02*
D03*
X424500D02*
D03*
X414500D02*
D03*
X404500D02*
D03*
X394500D02*
D03*
X384500D02*
D03*
X374500D02*
D03*
X364500D02*
D03*
X554500Y482500D02*
D03*
X544500D02*
D03*
X534500D02*
D03*
X524500D02*
D03*
X514500D02*
D03*
X504500D02*
D03*
X494500D02*
D03*
X484500D02*
D03*
X474500D02*
D03*
X464500D02*
D03*
X454500D02*
D03*
X444500D02*
D03*
X434500D02*
D03*
X424500D02*
D03*
X414500D02*
D03*
X404500D02*
D03*
X394500D02*
D03*
X384500D02*
D03*
X374500D02*
D03*
X532500Y593000D02*
D03*
X542500D02*
D03*
X423000Y560000D02*
D03*
D12*
X226500Y508000D02*
D03*
X324500Y466000D02*
D03*
X266945Y350433D02*
D03*
X364500Y482500D02*
D03*
D13*
X385000Y412000D02*
D03*
D14*
X405000D02*
D03*
D15*
X271500Y565000D02*
D03*
X397000Y638500D02*
D03*
X438500Y343000D02*
D03*
X577500Y428000D02*
D03*
X327000Y638500D02*
D03*
X552500Y593000D02*
D03*
X413000Y560000D02*
D03*
D16*
X395000Y463500D02*
D03*
Y433500D02*
D03*
X347500Y409500D02*
D03*
Y439500D02*
D03*
X435000Y581000D02*
D03*
Y611000D02*
D03*
D17*
X335000Y359000D02*
D03*
D18*
Y354000D02*
D03*
Y349000D02*
D03*
D19*
X480500Y644500D02*
D03*
X470500D02*
D03*
M02*
