G04 Layer_Physical_Order=2*
G04 Layer_Color=16711680*
%FSLAX25Y25*%
%MOIN*%
G70*
G01*
G75*
%ADD10C,0.01968*%
%ADD11C,0.05905*%
%ADD12R,0.05905X0.05905*%
%ADD13C,0.07283*%
%ADD14R,0.07283X0.07283*%
%ADD15R,0.05905X0.05905*%
%ADD16C,0.05512*%
%ADD17O,0.07874X0.03937*%
%ADD18O,0.07874X0.03937*%
%ADD19C,0.06299*%
D10*
X370500Y486500D02*
X374500Y482500D01*
X370500Y486500D02*
Y488500D01*
X358500D02*
X370500D01*
X494500Y482500D02*
X542000Y530000D01*
X559500D01*
X564500Y535000D01*
Y610000D01*
X507800Y666700D02*
X564500Y610000D01*
X245900Y666700D02*
X507800D01*
X216500Y637300D02*
X245900Y666700D01*
X216500Y366800D02*
Y637300D01*
Y366800D02*
X268000Y315300D01*
X430800D01*
X458500Y343000D01*
X389200Y477200D02*
X394500Y482500D01*
X389200Y430000D02*
Y477200D01*
Y430000D02*
X398400Y420800D01*
Y405000D02*
Y420800D01*
X393400Y400000D02*
X398400Y405000D01*
X368400Y400000D02*
X393400D01*
X360189Y408211D02*
X368400Y400000D01*
X360189Y408211D02*
Y426811D01*
X347500Y439500D02*
X360189Y426811D01*
X364500Y482500D02*
X385000Y462000D01*
Y422973D02*
Y462000D01*
Y422973D02*
X391595Y416378D01*
Y407500D02*
Y416378D01*
X389095Y405000D02*
X391595Y407500D01*
X376595Y405000D02*
X389095D01*
X371595Y410000D02*
X376595Y405000D01*
X371595Y410000D02*
Y428505D01*
X334100Y466000D02*
X371595Y428505D01*
X324500Y466000D02*
X334100D01*
X328100Y390100D02*
X347500Y409500D01*
X328100Y354000D02*
Y390100D01*
Y354000D02*
X335000D01*
X552500Y593000D02*
X560500Y585000D01*
Y538700D02*
Y585000D01*
X557500Y535700D02*
X560500Y538700D01*
X471300Y535700D02*
X557500D01*
X464500Y542500D02*
X471300Y535700D01*
X464500Y542500D02*
Y550000D01*
X460000Y554500D02*
X464500Y550000D01*
X456500Y554500D02*
X460000D01*
X444500Y542500D02*
X456500Y554500D01*
X444500Y492500D02*
X454500Y482500D01*
X444500Y492500D02*
Y542500D01*
X339000Y517500D02*
X419500D01*
X291500Y565000D02*
X339000Y517500D01*
X291500Y509500D02*
Y565000D01*
X280000Y498000D02*
X291500Y509500D01*
X226500Y498000D02*
X280000D01*
X268500Y456000D02*
X324500D01*
X226500Y498000D02*
X268500Y456000D01*
X226500Y416468D02*
Y498000D01*
Y416468D02*
X266945Y376024D01*
X387000Y560000D02*
X404500Y542500D01*
X387000Y560000D02*
Y638500D01*
X317000Y610000D02*
Y638500D01*
Y610000D02*
X384500Y542500D01*
X449500Y644500D02*
X470500D01*
X435000Y630000D02*
X449500Y644500D01*
X435000Y611000D02*
Y630000D01*
X301000Y349000D02*
X335000D01*
X299567Y350433D02*
X301000Y349000D01*
X266945Y350433D02*
X299567D01*
X342000Y565000D02*
X364500Y542500D01*
X301500Y565000D02*
X342000D01*
X340000Y577000D02*
X374500Y542500D01*
X283500Y577000D02*
X340000D01*
X271500Y565000D02*
X283500Y577000D01*
X327000Y610000D02*
Y638500D01*
Y610000D02*
X394500Y542500D01*
X397000Y560000D02*
X414500Y542500D01*
X397000Y560000D02*
Y638500D01*
X423000Y569000D02*
X435000Y581000D01*
X423000Y560000D02*
Y569000D01*
Y554000D02*
Y560000D01*
Y554000D02*
X434500Y542500D01*
X542500Y550500D02*
Y593000D01*
X534500Y542500D02*
X542500Y550500D01*
X395000Y463500D02*
X425500D01*
X444500Y482500D01*
X432300Y494700D02*
X444500Y482500D01*
X357500Y494700D02*
X432300D01*
X354500Y491700D02*
X357500Y494700D01*
X354500Y455632D02*
Y491700D01*
Y455632D02*
X380000Y430132D01*
Y417000D02*
Y430132D01*
Y417000D02*
X385000Y412000D01*
X497500Y593000D02*
X532500D01*
X480500Y610000D02*
X497500Y593000D01*
X480500Y610000D02*
Y644500D01*
X432500Y605200D02*
X441200D01*
X226500Y633400D02*
X240000Y646900D01*
X226500Y508000D02*
Y633400D01*
X454500Y542500D02*
X464500Y532500D01*
Y482500D02*
Y532500D01*
X468500Y343000D02*
X474500Y337000D01*
X581500D01*
X584500Y340000D01*
Y440800D01*
X570000Y455300D02*
X584500Y440800D01*
X531700Y455300D02*
X570000D01*
X504500Y482500D02*
X531700Y455300D01*
X260100Y340000D02*
X367000D01*
X220500Y379600D02*
X260100Y340000D01*
X220500Y379600D02*
Y502000D01*
X226500Y508000D01*
X377000Y370000D02*
X397000D01*
X356252Y390748D02*
X377000Y370000D01*
X356252Y390748D02*
Y414248D01*
X324500Y446000D02*
X356252Y414248D01*
X335000Y359000D02*
X386000D01*
X281500Y559000D02*
Y565000D01*
X265000Y559000D02*
X281500D01*
X265000D02*
Y641900D01*
X270000Y646900D01*
X409100D02*
X429200Y626800D01*
Y608500D02*
Y626800D01*
Y608500D02*
X432500Y605200D01*
X441200D02*
X480500Y644500D01*
X405500Y433500D02*
X454500Y482500D01*
X395000Y433500D02*
X405500D01*
X432000D02*
X437500Y428000D01*
X447500D02*
X448500Y429000D01*
Y466500D01*
X464500Y482500D01*
X405000Y412000D02*
X439000D01*
X448500Y421500D01*
X405500Y433500D02*
X432000D01*
X419500Y517500D02*
X444500Y492500D01*
X367000Y340000D02*
X386000Y359000D01*
X397000Y370000D01*
X439000Y412000D01*
X240000Y646900D02*
X270000D01*
X409100D01*
X448500Y421500D02*
Y428000D01*
Y429000D01*
D11*
X226500Y498000D02*
D03*
X281500Y565000D02*
D03*
X291500D02*
D03*
X301500D02*
D03*
X324500Y446000D02*
D03*
Y456000D02*
D03*
X266945Y376024D02*
D03*
X387000Y638500D02*
D03*
X448500Y343000D02*
D03*
X458500D02*
D03*
X468500D02*
D03*
X478500D02*
D03*
X488500D02*
D03*
X498500D02*
D03*
X508500D02*
D03*
X518500D02*
D03*
X528500D02*
D03*
X538500D02*
D03*
X548500D02*
D03*
X558500D02*
D03*
X568500D02*
D03*
X578500D02*
D03*
X567500Y428000D02*
D03*
X557500D02*
D03*
X547500D02*
D03*
X537500D02*
D03*
X527500D02*
D03*
X517500D02*
D03*
X507500D02*
D03*
X497500D02*
D03*
X487500D02*
D03*
X477500D02*
D03*
X467500D02*
D03*
X457500D02*
D03*
X447500D02*
D03*
X437500D02*
D03*
X317000Y638500D02*
D03*
X554500Y542500D02*
D03*
X544500D02*
D03*
X534500D02*
D03*
X524500D02*
D03*
X514500D02*
D03*
X504500D02*
D03*
X494500D02*
D03*
X484500D02*
D03*
X474500D02*
D03*
X464500D02*
D03*
X454500D02*
D03*
X444500D02*
D03*
X434500D02*
D03*
X424500D02*
D03*
X414500D02*
D03*
X404500D02*
D03*
X394500D02*
D03*
X384500D02*
D03*
X374500D02*
D03*
X364500D02*
D03*
X554500Y482500D02*
D03*
X544500D02*
D03*
X534500D02*
D03*
X524500D02*
D03*
X514500D02*
D03*
X504500D02*
D03*
X494500D02*
D03*
X484500D02*
D03*
X474500D02*
D03*
X464500D02*
D03*
X454500D02*
D03*
X444500D02*
D03*
X434500D02*
D03*
X424500D02*
D03*
X414500D02*
D03*
X404500D02*
D03*
X394500D02*
D03*
X384500D02*
D03*
X374500D02*
D03*
X532500Y593000D02*
D03*
X542500D02*
D03*
X423000Y560000D02*
D03*
D12*
X226500Y508000D02*
D03*
X324500Y466000D02*
D03*
X266945Y350433D02*
D03*
X364500Y482500D02*
D03*
D13*
X385000Y412000D02*
D03*
D14*
X405000D02*
D03*
D15*
X271500Y565000D02*
D03*
X397000Y638500D02*
D03*
X438500Y343000D02*
D03*
X577500Y428000D02*
D03*
X327000Y638500D02*
D03*
X552500Y593000D02*
D03*
X413000Y560000D02*
D03*
D16*
X395000Y463500D02*
D03*
Y433500D02*
D03*
X347500Y409500D02*
D03*
Y439500D02*
D03*
X435000Y581000D02*
D03*
Y611000D02*
D03*
D17*
X335000Y359000D02*
D03*
D18*
Y354000D02*
D03*
Y349000D02*
D03*
D19*
X480500Y644500D02*
D03*
X470500D02*
D03*
M02*
