G04 Layer_Color=2752767*
%FSLAX25Y25*%
%MOIN*%
G70*
G01*
G75*
%ADD15C,0.00200*%
%ADD16C,0.01000*%
%ADD17C,0.01600*%
D15*
X248200Y396700D02*
Y398300D01*
X249800D01*
Y396700D01*
X248200D01*
X238200D02*
Y398300D01*
X239800D01*
Y396700D01*
X238200D01*
X228200D02*
Y398300D01*
X229800D01*
Y396700D01*
X228200D01*
X218200D02*
Y398300D01*
X219800D01*
Y396700D01*
X218200D01*
X238200Y323200D02*
Y324800D01*
X239800D01*
Y323200D01*
X238200D01*
X228200D02*
Y324800D01*
X229800D01*
Y323200D01*
X228200D01*
X558700D02*
Y324800D01*
X560300D01*
Y323200D01*
X558700D01*
X548700D02*
Y324800D01*
X550300D01*
Y323200D01*
X548700D01*
X388200Y338700D02*
Y340300D01*
X389800D01*
Y338700D01*
X388200D01*
X378200D02*
Y340300D01*
X379800D01*
Y338700D01*
X378200D01*
X568200Y397200D02*
Y398800D01*
X569800D01*
Y397200D01*
X568200D01*
X558200D02*
Y398800D01*
X559800D01*
Y397200D01*
X558200D01*
X548200D02*
Y398800D01*
X549800D01*
Y397200D01*
X548200D01*
X538200D02*
Y398800D01*
X539800D01*
Y397200D01*
X538200D01*
X613701Y332600D02*
Y337400D01*
X618501D01*
Y332600D01*
X613701D01*
D16*
Y315998D02*
Y310000D01*
X616700D01*
X617699Y311000D01*
Y314998D01*
X616700Y315998D01*
X613701D01*
X619699Y313999D02*
Y310000D01*
Y311999D01*
X620698Y312999D01*
X621698Y313999D01*
X622698D01*
X625697Y310000D02*
X627696D01*
X626697D01*
Y313999D01*
X625697D01*
X630695Y310000D02*
X632695D01*
X631695D01*
Y315998D01*
X630695D01*
X635694Y310000D02*
X637693D01*
X636693D01*
Y315998D01*
X635694D01*
X646690D02*
Y310000D01*
X649689D01*
X650689Y311000D01*
Y314998D01*
X649689Y315998D01*
X646690D01*
X652688Y313999D02*
Y310000D01*
Y311999D01*
X653688Y312999D01*
X654688Y313999D01*
X655687D01*
X659686D02*
X661685D01*
X662685Y312999D01*
Y310000D01*
X659686D01*
X658686Y311000D01*
X659686Y311999D01*
X662685D01*
X664684Y313999D02*
Y311000D01*
X665684Y310000D01*
X666684Y311000D01*
X667683Y310000D01*
X668683Y311000D01*
Y313999D01*
X670682Y310000D02*
X672682D01*
X671682D01*
Y313999D01*
X670682D01*
X675681Y310000D02*
Y313999D01*
X678680D01*
X679679Y312999D01*
Y310000D01*
X683678Y308001D02*
X684678D01*
X685677Y309000D01*
Y313999D01*
X682679D01*
X681679Y312999D01*
Y311000D01*
X682679Y310000D01*
X685677D01*
X687677D02*
Y311000D01*
X688677D01*
Y310000D01*
X687677D01*
X664088Y332000D02*
X666088D01*
X665088D01*
Y337998D01*
X664088Y336998D01*
X672086Y332000D02*
Y337998D01*
X669087Y334999D01*
X673085D01*
X733670Y336998D02*
X734669Y337998D01*
X736669D01*
X737668Y336998D01*
Y335999D01*
X736669Y334999D01*
X735669D01*
X736669D01*
X737668Y333999D01*
Y333000D01*
X736669Y332000D01*
X734669D01*
X733670Y333000D01*
X743667Y337998D02*
X739668D01*
Y334999D01*
X741667Y335999D01*
X742667D01*
X743667Y334999D01*
Y333000D01*
X742667Y332000D01*
X740667D01*
X739668Y333000D01*
X745666Y332000D02*
Y333000D01*
X746665D01*
Y332000D01*
X745666D01*
X753663D02*
Y337998D01*
X750664Y334999D01*
X754663D01*
X756662Y336998D02*
X757662Y337998D01*
X759661D01*
X760661Y336998D01*
Y335999D01*
X759661Y334999D01*
X758662D01*
X759661D01*
X760661Y333999D01*
Y333000D01*
X759661Y332000D01*
X757662D01*
X756662Y333000D01*
X762660Y336998D02*
X763660Y337998D01*
X765659D01*
X766659Y336998D01*
Y335999D01*
X765659Y334999D01*
X764660D01*
X765659D01*
X766659Y333999D01*
Y333000D01*
X765659Y332000D01*
X763660D01*
X762660Y333000D01*
X768658Y332000D02*
Y335999D01*
X769658D01*
X770658Y334999D01*
Y332000D01*
Y334999D01*
X771657Y335999D01*
X772657Y334999D01*
Y332000D01*
X774656D02*
X776656D01*
X775656D01*
Y335999D01*
X774656D01*
X779655Y332000D02*
X781654D01*
X780654D01*
Y337998D01*
X779655D01*
X792651Y332000D02*
X790651Y333999D01*
Y335999D01*
X792651Y337998D01*
X795650Y336998D02*
X796649Y337998D01*
X798649D01*
X799648Y336998D01*
Y333000D01*
X798649Y332000D01*
X796649D01*
X795650Y333000D01*
Y336998D01*
X801648Y332000D02*
Y333000D01*
X802647D01*
Y332000D01*
X801648D01*
X806646Y333000D02*
X807646Y332000D01*
X809645D01*
X810645Y333000D01*
Y336998D01*
X809645Y337998D01*
X807646D01*
X806646Y336998D01*
Y335999D01*
X807646Y334999D01*
X810645D01*
X812644Y332000D02*
Y335999D01*
X813644D01*
X814643Y334999D01*
Y332000D01*
Y334999D01*
X815643Y335999D01*
X816643Y334999D01*
Y332000D01*
X818642D02*
Y335999D01*
X819642D01*
X820642Y334999D01*
Y332000D01*
Y334999D01*
X821641Y335999D01*
X822641Y334999D01*
Y332000D01*
X824640D02*
X826640Y333999D01*
Y335999D01*
X824640Y337998D01*
X868030Y332000D02*
Y337998D01*
X871029D01*
X872029Y336998D01*
Y334999D01*
X871029Y333999D01*
X868030D01*
X874028Y337998D02*
X878027D01*
X876027D01*
Y332000D01*
X880026Y337998D02*
Y332000D01*
Y334999D01*
X884025D01*
Y337998D01*
Y332000D01*
X918418D02*
Y337998D01*
X921417D01*
X922416Y336998D01*
Y334999D01*
X921417Y333999D01*
X918418D01*
X920417D02*
X922416Y332000D01*
X925415D02*
X927415D01*
X928415Y333000D01*
Y334999D01*
X927415Y335999D01*
X925415D01*
X924416Y334999D01*
Y333000D01*
X925415Y332000D01*
X930414Y335999D02*
Y333000D01*
X931413Y332000D01*
X934412D01*
Y335999D01*
X936412Y332000D02*
Y335999D01*
X939411D01*
X940411Y334999D01*
Y332000D01*
X946409Y337998D02*
Y332000D01*
X943410D01*
X942410Y333000D01*
Y334999D01*
X943410Y335999D01*
X946409D01*
X664088Y320000D02*
X666088D01*
X665088D01*
Y325998D01*
X664088Y324998D01*
X672086Y320000D02*
Y325998D01*
X669087Y322999D01*
X673085D01*
X683885Y325998D02*
X687884D01*
X685885D01*
Y320000D01*
X690883D02*
X692882D01*
X693882Y321000D01*
Y322999D01*
X692882Y323999D01*
X690883D01*
X689884Y322999D01*
Y321000D01*
X690883Y320000D01*
X696881Y324998D02*
Y323999D01*
X695882D01*
X697881D01*
X696881D01*
Y321000D01*
X697881Y320000D01*
X701880Y323999D02*
X703879D01*
X704879Y322999D01*
Y320000D01*
X701880D01*
X700880Y321000D01*
X701880Y321999D01*
X704879D01*
X706878Y320000D02*
X708877D01*
X707878D01*
Y325998D01*
X706878D01*
D17*
X618499Y352398D02*
X617300Y353598D01*
X614900D01*
X613701Y352398D01*
Y351199D01*
X614900Y349999D01*
X617300D01*
X618499Y348799D01*
Y347600D01*
X617300Y346400D01*
X614900D01*
X613701Y347600D01*
X620898Y351199D02*
Y347600D01*
X622098Y346400D01*
X625697D01*
Y345200D01*
X624497Y344001D01*
X623298D01*
X625697Y346400D02*
Y351199D01*
X628096Y346400D02*
Y351199D01*
X629296D01*
X630495Y349999D01*
Y346400D01*
Y349999D01*
X631695Y351199D01*
X632895Y349999D01*
Y346400D01*
X635294Y353598D02*
Y346400D01*
X638893D01*
X640092Y347600D01*
Y348799D01*
Y349999D01*
X638893Y351199D01*
X635294D01*
X643691Y346400D02*
X646090D01*
X647290Y347600D01*
Y349999D01*
X646090Y351199D01*
X643691D01*
X642491Y349999D01*
Y347600D01*
X643691Y346400D01*
X649689D02*
X652088D01*
X650889D01*
Y353598D01*
X649689D01*
X664088D02*
Y346400D01*
Y349999D01*
X668887D01*
Y353598D01*
Y346400D01*
X671286D02*
X673685D01*
X672486D01*
Y351199D01*
X671286D01*
X678484Y352398D02*
Y351199D01*
X677284D01*
X679683D01*
X678484D01*
Y347600D01*
X679683Y346400D01*
X695278Y352398D02*
X694079Y353598D01*
X691679D01*
X690480Y352398D01*
Y347600D01*
X691679Y346400D01*
X694079D01*
X695278Y347600D01*
X698877Y346400D02*
X701276D01*
X702476Y347600D01*
Y349999D01*
X701276Y351199D01*
X698877D01*
X697678Y349999D01*
Y347600D01*
X698877Y346400D01*
X704875Y351199D02*
Y347600D01*
X706075Y346400D01*
X709674D01*
Y351199D01*
X712073Y346400D02*
Y351199D01*
X715672D01*
X716871Y349999D01*
Y346400D01*
X720470Y352398D02*
Y351199D01*
X719271D01*
X721670D01*
X720470D01*
Y347600D01*
X721670Y346400D01*
X738468Y353598D02*
X733670D01*
Y349999D01*
X736069D01*
X733670D01*
Y346400D01*
X740867D02*
X743267D01*
X742067D01*
Y351199D01*
X740867D01*
X746865Y346400D02*
Y351199D01*
X750464D01*
X751664Y349999D01*
Y346400D01*
X754063D02*
X756462D01*
X755263D01*
Y351199D01*
X754063D01*
X760061Y346400D02*
X763660D01*
X764860Y347600D01*
X763660Y348799D01*
X761261D01*
X760061Y349999D01*
X761261Y351199D01*
X764860D01*
X767259Y353598D02*
Y346400D01*
Y349999D01*
X768459Y351199D01*
X770858D01*
X772057Y349999D01*
Y346400D01*
X778055D02*
X775656D01*
X774457Y347600D01*
Y349999D01*
X775656Y351199D01*
X778055D01*
X779255Y349999D01*
Y348799D01*
X774457D01*
X786453Y353598D02*
Y346400D01*
X782854D01*
X781654Y347600D01*
Y349999D01*
X782854Y351199D01*
X786453D01*
X796049Y353598D02*
Y346400D01*
Y349999D01*
X800848D01*
Y353598D01*
Y346400D01*
X804447D02*
X806846D01*
X808046Y347600D01*
Y349999D01*
X806846Y351199D01*
X804447D01*
X803247Y349999D01*
Y347600D01*
X804447Y346400D01*
X810445D02*
X812844D01*
X811644D01*
Y353598D01*
X810445D01*
X820042Y346400D02*
X817642D01*
X816443Y347600D01*
Y349999D01*
X817642Y351199D01*
X820042D01*
X821241Y349999D01*
Y348799D01*
X816443D01*
X835637Y352398D02*
X834437Y353598D01*
X832038D01*
X830838Y352398D01*
Y351199D01*
X832038Y349999D01*
X834437D01*
X835637Y348799D01*
Y347600D01*
X834437Y346400D01*
X832038D01*
X830838Y347600D01*
X838036Y346400D02*
X840435D01*
X839235D01*
Y351199D01*
X838036D01*
X844034D02*
X848833D01*
X844034Y346400D01*
X848833D01*
X854830D02*
X852431D01*
X851232Y347600D01*
Y349999D01*
X852431Y351199D01*
X854830D01*
X856030Y349999D01*
Y348799D01*
X851232D01*
X868030Y346400D02*
Y353598D01*
X871629D01*
X872829Y352398D01*
Y349999D01*
X871629Y348799D01*
X868030D01*
X875228Y346400D02*
X877627D01*
X876427D01*
Y353598D01*
X875228D01*
X882425Y351199D02*
X884825D01*
X886024Y349999D01*
Y346400D01*
X882425D01*
X881226Y347600D01*
X882425Y348799D01*
X886024D01*
X889623Y352398D02*
Y351199D01*
X888424D01*
X890823D01*
X889623D01*
Y347600D01*
X890823Y346400D01*
X898020D02*
X895621D01*
X894422Y347600D01*
Y349999D01*
X895621Y351199D01*
X898020D01*
X899220Y349999D01*
Y348799D01*
X894422D01*
X906418Y353598D02*
Y346400D01*
X902819D01*
X901619Y347600D01*
Y349999D01*
X902819Y351199D01*
X906418D01*
X918418Y353598D02*
Y346400D01*
Y349999D01*
X923216D01*
Y353598D01*
Y346400D01*
X926815D02*
X929214D01*
X930414Y347600D01*
Y349999D01*
X929214Y351199D01*
X926815D01*
X925615Y349999D01*
Y347600D01*
X926815Y346400D01*
X932813D02*
X935212D01*
X934013D01*
Y353598D01*
X932813D01*
X942410Y346400D02*
X940011D01*
X938811Y347600D01*
Y349999D01*
X940011Y351199D01*
X942410D01*
X943610Y349999D01*
Y348799D01*
X938811D01*
X953206Y353598D02*
X958005D01*
X955606D01*
Y346400D01*
X960404Y351199D02*
Y347600D01*
X961604Y346400D01*
X965203D01*
Y345200D01*
X964003Y344001D01*
X962803D01*
X965203Y346400D02*
Y351199D01*
X967602Y344001D02*
Y351199D01*
X971201D01*
X972400Y349999D01*
Y347600D01*
X971201Y346400D01*
X967602D01*
X978398D02*
X975999D01*
X974800Y347600D01*
Y349999D01*
X975999Y351199D01*
X978398D01*
X979598Y349999D01*
Y348799D01*
X974800D01*
X604901Y357200D02*
X991598D01*
X604901Y341000D02*
X991598D01*
X604901Y357200D02*
Y317000D01*
X991598Y357200D02*
Y317000D01*
X659688Y357200D02*
Y317000D01*
X729270Y357200D02*
Y317000D01*
X863630Y357200D02*
Y317000D01*
X914018Y357200D02*
Y317000D01*
X604901Y329000D02*
X991598D01*
X604901Y317000D02*
X991598D01*
M02*
