G04 Layer_Physical_Order=2*
G04 Layer_Color=16711680*
%FSLAX25Y25*%
%MOIN*%
G70*
G01*
G75*
%ADD10C,0.01968*%
%ADD11C,0.05905*%
%ADD12R,0.05905X0.05905*%
D10*
X331000Y397500D02*
X389000Y339500D01*
X249000Y397500D02*
X331000D01*
X559000Y361500D02*
Y398000D01*
Y361500D02*
X559500Y361000D01*
Y324000D02*
Y361000D01*
X549000Y361500D02*
Y398000D01*
Y361500D02*
X549500Y324000D01*
X219000Y316900D02*
Y397500D01*
Y316900D02*
X220600Y315300D01*
X354800D01*
X379000Y339500D01*
X389000Y329000D02*
Y339500D01*
Y329000D02*
X400000Y318000D01*
X565500D01*
Y394500D01*
X569000Y398000D01*
X379000Y322400D02*
Y339500D01*
Y322400D02*
X390000Y311400D01*
X570000D01*
X575000Y316400D01*
Y400900D01*
X570000Y405900D02*
X575000Y400900D01*
X546900Y405900D02*
X570000D01*
X539000Y398000D02*
X546900Y405900D01*
X239000Y324000D02*
Y397500D01*
X229000Y324000D02*
Y397500D01*
D11*
X249000D02*
D03*
X239000D02*
D03*
X229000D02*
D03*
Y324000D02*
D03*
X549500D02*
D03*
X379000Y339500D02*
D03*
X569000Y398000D02*
D03*
X559000D02*
D03*
X549000D02*
D03*
D12*
X219000Y397500D02*
D03*
X239000Y324000D02*
D03*
X559500D02*
D03*
X389000Y339500D02*
D03*
X539000Y398000D02*
D03*
M02*
